<?xml version="1.0" encoding="utf-8" ?><svg xmlns="http://www.w3.org/2000/svg" xmlns:xlink="http://www.w3.org/1999/xlink" width="50" height="50" viewBox="0 0 1019 1019"><path fill="#FEFEFE" transform="scale(0.995117 0.995117)" d="M177.65 255.886C190.431 236.785 216.481 212.097 233.628 197.045C410.645 41.6603 683.454 64.3302 836.493 242.37C851.395 258.858 864.234 276.899 876.194 295.607C923.985 370.363 949.001 462.778 943.479 551.54C950.204 551.528 957.369 551.758 964.01 551.603L964.394 613.339C964.43 625.409 964.07 639.547 964.521 651.445C954.645 650.92 938.189 650.957 928.347 651.48C927.119 656.701 923.736 665.877 921.923 670.994C912.96 696.298 901.274 720.35 887.536 743.4C828.877 841.819 730.704 916.394 619.334 944.231C593.496 950.689 571.357 953.863 544.922 955.782C455.557 962.267 368.66 943.635 291.419 897.899C213.498 851.762 150.049 782.706 114.285 699.272C107.458 683.345 100.938 667.971 96.6312 651.099C82.3899 651.584 64.0635 650.961 49.4717 650.988C50.3611 619.302 49.4788 583.851 49.4936 552.042L79.906 552.029C78.8042 543.106 79.6041 530.609 79.7433 521.287C80.9815 438.359 108.175 354.699 154.845 286.258C161.815 276.038 169.537 265.155 177.65 255.886Z"/><defs><linearGradient id="gradient_0" gradientUnits="userSpaceOnUse" x1="513.82086" y1="955.99426" x2="512.48669" y2="649.69464"><stop offset="0" stop-color="#391557"/><stop offset="1" stop-color="#5C247B"/></linearGradient></defs><path fill="url(#gradient_0)" transform="scale(0.995117 0.995117)" d="M856.206 651.393C860.042 650.467 874.966 650.873 879.729 650.908L928.347 651.48C927.119 656.701 923.736 665.877 921.923 670.994C912.96 696.298 901.274 720.35 887.536 743.4C828.877 841.819 730.704 916.394 619.334 944.231C593.496 950.689 571.357 953.863 544.922 955.782C455.557 962.267 368.66 943.635 291.419 897.899C213.498 851.762 150.049 782.706 114.285 699.272C107.458 683.345 100.938 667.971 96.6312 651.099C111.418 650.665 126.803 651.075 141.641 650.923C145.964 650.878 161.534 650.628 164.789 651.406C169.2 651.474 173.43 651.548 177.846 651.412C183.062 650.695 194.557 650.996 200.291 650.995L240.299 650.991L305.119 651.012C311.412 651.016 334.298 650.902 339.554 651.931C393.051 652.696 448.304 651.95 501.974 651.999L609.455 651.502C623.241 651.501 647.941 650.292 660.766 652.428C692.253 653.246 723.459 652.647 754.948 652.423C759.877 651.18 781.666 651.507 787.905 651.511L844.301 651.485C847.574 651.473 853.123 651.633 856.206 651.393Z"/><defs><linearGradient id="gradient_1" gradientUnits="userSpaceOnUse" x1="612.53772" y1="877.78937" x2="617.12042" y2="647.51471"><stop offset="0" stop-color="#451E61"/><stop offset="1" stop-color="#6D2696"/></linearGradient></defs><path fill="url(#gradient_1)" transform="scale(0.995117 0.995117)" d="M754.948 652.423C759.877 651.18 781.666 651.507 787.905 651.511L844.301 651.485C775.414 811.665 602.609 909.219 430.546 867.014C415.934 863.43 402.167 859.066 388.056 853.902C382.562 852.175 357.27 841.458 353.405 838.205C356.697 804.898 357.779 770.318 360.66 736.913C361.787 723.839 362.348 704.804 364.606 692.118C359.498 687.997 352.328 681.845 346.814 678.772C345.76 679.716 345.541 680.125 344.69 681.242C338.542 683.284 332.815 656.835 331.56 651.973L339.554 651.931C393.051 652.696 448.304 651.95 501.974 651.999L609.455 651.502C623.241 651.501 647.941 650.292 660.766 652.428C692.253 653.246 723.459 652.647 754.948 652.423Z"/><path fill="#EFCAF5" transform="scale(0.995117 0.995117)" d="M339.554 651.931C393.051 652.696 448.304 651.95 501.974 651.999C487.315 669.696 476.811 690.826 465.566 710.814C442.476 751.857 413.033 788.948 388.209 828.825C385.647 832.941 388.043 848.301 388.056 853.902C382.562 852.175 357.27 841.458 353.405 838.205C356.697 804.898 357.779 770.318 360.66 736.913C361.787 723.839 362.348 704.804 364.606 692.118C359.498 687.997 352.328 681.845 346.814 678.772C345.76 679.716 345.541 680.125 344.69 681.242C338.542 683.284 332.815 656.835 331.56 651.973L339.554 651.931Z"/><path fill="#EFCAF5" transform="scale(0.995117 0.995117)" d="M660.766 652.428C692.253 653.246 723.459 652.647 754.948 652.423C756.846 657.377 758.979 661.926 758.59 667.41C757.842 677.978 744.229 685.747 736.232 692.529C737.662 696.332 739.933 703.198 738.087 707.04C734.332 714.855 728.164 721.58 723.548 728.908C718.528 736.878 714.153 745.193 708.865 752.998C698.828 756.086 689.303 760.059 679.112 762.972C678.544 753.603 677.815 747.299 673.393 738.853C671.846 735.329 669.138 731.347 668.028 727.697C662.236 708.654 654.79 690.474 647.515 671.966C649.08 667.895 652.45 663.845 654.547 658.747L653.345 652.459L660.766 652.428Z"/><path fill="#EFCAF5" transform="scale(0.995117 0.995117)" d="M790.472 660.297C793.656 660.594 797.143 662.013 796.873 665.66C796.135 675.641 789.056 716.315 783.308 721.868C781.763 721.891 781.988 721.673 780.442 720.681L771.462 711.369C771.458 698.581 773.253 692.114 771.964 677.84C774.481 675.17 778.662 672.508 781.512 669.968C784.887 666.959 787.546 663.72 790.472 660.297Z"/><path fill="#FEFEFE" transform="scale(0.995117 0.995117)" d="M177.846 651.412C183.062 650.695 194.557 650.996 200.291 650.995L240.299 650.991L305.119 651.012C311.412 651.016 334.298 650.902 339.554 651.931L331.56 651.973C332.815 656.835 338.542 683.284 344.69 681.242C345.541 680.125 345.76 679.716 346.814 678.772C352.328 681.845 359.498 687.997 364.606 692.118C362.348 704.804 361.787 723.839 360.66 736.913C357.779 770.318 356.697 804.898 353.405 838.205C357.27 841.458 382.562 852.175 388.056 853.902C402.167 859.066 415.934 863.43 430.546 867.014C602.609 909.219 775.414 811.665 844.301 651.485C847.574 651.473 853.123 651.633 856.206 651.393C860.703 651.509 865.505 651.442 870.028 651.462C830.369 755.649 745.487 838.646 641.022 877.119C444.954 949.328 229.413 846.609 157.107 651.468L164.789 651.406C169.2 651.474 173.43 651.548 177.846 651.412Z"/><path fill="#5B189A" transform="scale(0.995117 0.995117)" d="M177.846 651.412C183.062 650.695 194.557 650.996 200.291 650.995L240.299 650.991L305.119 651.012C311.412 651.016 334.298 650.902 339.554 651.931L331.56 651.973C332.815 656.835 338.542 683.284 344.69 681.242C345.541 680.125 345.76 679.716 346.814 678.772C352.328 681.845 359.498 687.997 364.606 692.118C362.348 704.804 361.787 723.839 360.66 736.913C357.779 770.318 356.697 804.898 353.405 838.205C350.715 836.992 347.836 835.496 345.215 834.101C278.555 798.612 223.15 740.557 191.053 672.184C187.944 665.561 185.353 658.641 182.355 651.974C181.091 651.279 179.366 651.444 177.846 651.412Z"/><path fill="#3D096D" transform="scale(0.995117 0.995117)" d="M685.268 454.54C694.538 454.383 709.455 453.225 716.699 459.634L719.54 466.299L721.912 465.889C735.389 490.82 748.277 509.073 764.683 532.071L763.254 534.933C766.354 539.065 772.34 548.063 777.442 548.261C784.441 548.534 785.614 541.593 792.082 550.563C803.627 552.334 810.5 551.164 821.75 551.065C835.144 550.947 848.736 550.99 862.14 551.024C870.277 551.058 878.67 551.196 886.783 551.035C905.972 551.5 924.568 551.203 943.479 551.54C950.204 551.528 957.369 551.758 964.01 551.603L964.394 613.339C964.43 625.409 964.07 639.547 964.521 651.445C954.645 650.92 938.189 650.957 928.347 651.48L879.729 650.908C874.966 650.873 860.042 650.467 856.206 651.393C853.123 651.633 847.574 651.473 844.301 651.485L787.905 651.511C781.666 651.507 759.877 651.18 754.948 652.423C723.459 652.647 692.253 653.246 660.766 652.428C647.941 650.292 623.241 651.501 609.455 651.502L501.974 651.999C448.304 651.95 393.051 652.696 339.554 651.931C334.298 650.902 311.412 651.016 305.119 651.012L240.299 650.991L200.291 650.995C194.557 650.996 183.062 650.695 177.846 651.412C173.43 651.548 169.2 651.474 164.789 651.406C161.534 650.628 145.964 650.878 141.641 650.923C126.803 651.075 111.418 650.665 96.6312 651.099C82.3899 651.584 64.0635 650.961 49.4717 650.988C50.3611 619.302 49.4788 583.851 49.4936 552.042L79.906 552.029C97.945 551.827 117.045 551.139 135.052 551.994C142.66 552.038 150.84 552.228 158.402 552.016C169.128 552.186 183.273 551.659 194.19 551.55L249.939 551.494L286.481 551.543C291.775 551.551 301.661 551.823 306.54 551.196C309.932 552.838 326.693 552.281 330.213 549.963L330.907 549.776C331.094 549.921 332.868 551.294 332.868 551.294C336.185 551.636 341.514 552.011 344.733 551.503L381.643 551.51C388.309 553.235 410.373 552.005 418.183 551.996L491.368 552.009C505.571 552.026 522.245 553.031 536.592 551.866C537.309 551.808 537.361 551.134 537.872 550.141C533.765 536.851 533.219 532.084 537.105 518.071C537.657 516.617 537.576 516.539 538.612 515.426C542.863 513.815 549.229 515.073 553.826 514.956C557.637 514.859 561.671 514.963 565.495 514.948C590.826 514.847 616.31 514.96 641.624 514.757C653.605 514.662 665.054 510.781 673.099 501.706C685.989 487.65 685.901 472.527 685.268 454.54Z"/><path fill="#EFCAF5" transform="scale(0.995117 0.995117)" d="M685.268 454.54C694.538 454.383 709.455 453.225 716.699 459.634L719.54 466.299L721.912 465.889C735.389 490.82 748.277 509.073 764.683 532.071L763.254 534.933C766.354 539.065 772.34 548.063 777.442 548.261C784.441 548.534 785.614 541.593 792.082 550.563C787.392 551.332 777.089 551.262 771.797 551.466C755.845 552.08 739.767 551.999 723.802 552.006L596.571 552.135L553.197 552.206C549.165 552.215 544.049 552.514 540.077 552.239C538.713 552.144 538.574 551.301 537.872 550.141C533.765 536.851 533.219 532.084 537.105 518.071C537.657 516.617 537.576 516.539 538.612 515.426C542.863 513.815 549.229 515.073 553.826 514.956C557.637 514.859 561.671 514.963 565.495 514.948C590.826 514.847 616.31 514.96 641.624 514.757C653.605 514.662 665.054 510.781 673.099 501.706C685.989 487.65 685.901 472.527 685.268 454.54Z"/><path fill="#9D4EDC" transform="scale(0.995117 0.995117)" d="M721.912 465.889C735.389 490.82 748.277 509.073 764.683 532.071L763.254 534.933C759.943 531.574 755.836 525.995 752.688 522.316C736.928 503.9 729.161 488.222 719.54 466.299L721.912 465.889Z"/><path fill="#FEFEFE" transform="scale(0.995117 0.995117)" d="M658.569 569.195C660.253 569.689 661.683 570.138 662.721 571.566C663.635 577.742 664.871 615.53 662.042 619.08C661.132 620.221 660.719 620.111 659.376 620.164C657.545 619.382 657.203 618.383 656.068 616.608C646.465 622.097 644.503 623.344 634.686 617.48C616.788 599.917 636.348 571.906 656.998 589.007C656.544 582.596 655.027 574.365 658.569 569.195Z"/><path fill="#3D096D" transform="scale(0.995117 0.995117)" d="M643.299 590.199C647.663 589.42 652.108 591.053 654.93 594.472C657.752 597.891 658.512 602.564 656.92 606.701C655.328 610.838 651.63 613.796 647.245 614.441C640.606 615.418 634.413 610.886 633.335 604.263C632.257 597.64 636.694 591.378 643.299 590.199Z"/><path fill="#FEFEFE" transform="scale(0.995117 0.995117)" d="M457.586 583.092C464.198 582.593 465.577 584.011 471.095 587.637C471.887 585.696 471.955 585.242 473.32 583.727C475.114 583.073 474.285 583.013 475.896 583.727C477.274 585.665 478.21 589.193 478.128 591.475C477.918 597.349 479.928 617.911 475.937 621.195C474.14 621.105 472.917 619.516 471.235 618.11C469.358 617.772 469.865 617.957 467.707 619.262C444.772 631.579 426.931 590.636 457.586 583.092Z"/><path fill="#3D096D" transform="scale(0.995117 0.995117)" d="M458.084 589.035C474.425 589.916 477.806 607.621 461.966 614.908C444.423 613.618 442.945 595.759 458.084 589.035Z"/><path fill="#FEFEFE" transform="scale(0.995117 0.995117)" d="M355.743 570.247C360.491 570.107 364.883 569.885 369.667 570.307C383.99 571.57 389.422 588.169 380.008 598.442C374.839 604.081 367.46 603.944 360.375 603.96C360.207 603.955 360.039 603.95 359.871 603.944C353.059 602.958 358.999 616.568 354.829 620.999C352.788 621.321 353.811 621.374 351.681 620.525C349.42 618.164 349.168 611.498 349.755 608.572C351.07 602.015 348.299 575.964 350.841 571.511C352.402 570.296 353.737 570.424 355.743 570.247Z"/><path fill="#3D096D" transform="scale(0.995117 0.995117)" d="M356.622 576.521C370.3 575.987 383.79 576.964 374.636 594.931C368.466 598.25 363.254 597.599 356.502 597.39L356.622 576.521Z"/><path fill="#FEFEFE" transform="scale(0.995117 0.995117)" d="M524.704 583.805C534.763 582.193 544.225 589.037 545.844 599.094C547.464 609.152 540.628 618.62 530.571 620.247C520.504 621.876 511.024 615.031 509.402 604.962C507.781 594.893 514.634 585.418 524.704 583.805Z"/><path fill="#3D096D" transform="scale(0.995117 0.995117)" d="M525.154 589.55C540.844 587.935 546.044 607.972 529.348 614.71C517.583 616.661 507.464 597.287 525.154 589.55Z"/><path fill="#FEFEFE" transform="scale(0.995117 0.995117)" d="M578.759 582.63C586.518 585.076 582.251 602.262 582.978 608.566C583.312 611.468 582.849 616.986 581.978 619.698C580.855 620.827 581.53 620.482 579.815 620.617C577.952 619.975 577.308 619.092 575.84 617.683C572.919 619.448 569.876 621.115 566.413 621.179C553.22 621.422 552.267 608.729 552.008 599.125C551.92 596.419 550.533 581.85 556.3 583.504C559.835 588.153 557.88 596.988 558.405 602.51C559.791 617.097 567.658 618.939 576.436 608.079C576.753 599.727 574.452 589.116 578.759 582.63Z"/><path fill="#FEFEFE" transform="scale(0.995117 0.995117)" d="M592.95 582.459C594.078 582.795 594.474 582.992 595.567 583.452C596.922 584.79 596.947 586.114 597.342 588.02C623.859 569.318 625.296 613.601 618.773 620.7L617.836 620.716C613.282 616.755 614.755 605.391 615.023 599.614C614.421 595.511 612.707 590.073 607.637 589.848C591.408 589.128 601.406 614.842 594.849 620.412C593.103 620.617 593.909 620.768 592.349 619.925C591.986 619.186 591.097 617.27 591.091 616.487C591.035 608.977 588.954 587.964 592.95 582.459Z"/><path fill="#FEFEFE" transform="scale(0.995117 0.995117)" d="M419.32 583.127C425.483 582.901 436.794 584.327 437.293 592.19C434.325 596.678 425.807 586.948 419.946 589.19C402.947 595.694 409.204 619.66 428.964 613.669C430.763 612.308 431.192 611.855 433.253 611.076C435.324 611.251 434.505 610.84 435.893 612.125C438.023 621.653 419.632 623.075 413.577 619.045C397.301 608.213 400.849 588.629 419.32 583.127Z"/><path fill="#FEFEFE" transform="scale(0.995117 0.995117)" d="M497.668 582.982C500.821 583.042 509.045 583.497 508.753 587.954C501.259 598.536 490.526 575.371 491.596 618.764C490.773 619.939 490.537 619.942 489.301 620.737C486.753 620.97 485.475 618.771 485.608 616.077C486.098 606.18 483.698 593.233 487.102 584.121C487.508 583.033 490.405 583.339 491.616 585.453C493.593 585.765 495.808 584.071 497.668 582.982Z"/><path fill="#FEFEFE" transform="scale(0.995117 0.995117)" d="M392.653 583.273C394.539 583.69 397.285 584.695 397.285 586.973C397.284 594.053 399.065 616.031 395.377 621.074C392.514 620.404 390.877 620.009 390.693 616.625C390.148 606.656 390.162 596.296 390.915 586.345C390.982 585.453 392.103 583.976 392.653 583.273Z"/><path fill="#FEFEFE" transform="scale(0.995117 0.995117)" d="M393.366 570.205C395.76 569.93 397.945 571.593 398.317 573.974C398.689 576.355 397.116 578.605 394.752 579.073C393.135 579.394 391.473 578.803 390.421 577.534C389.369 576.265 389.097 574.522 389.711 572.993C390.326 571.463 391.729 570.393 393.366 570.205Z"/><path fill="#EFCAF5" transform="scale(0.995117 0.995117)" d="M173.715 429.861C175.641 422.819 179.306 413.59 181.846 406.543C204.166 344.632 242.248 295.205 291.583 252.341C293.897 256.67 295.742 260.605 297.791 265.041C301.803 263.469 309.549 260.117 313.209 258.99C316.003 259.831 332.225 265.176 328.921 271.297C328.735 271.641 325.033 275 324.355 275.651C326.963 292.312 315.357 292.663 305.532 282.845L304.315 281.61C295.81 292.959 286.397 299.074 281.115 311.361C285.019 321.12 289.063 325.87 298.881 330.409C305.869 333.641 315.186 333.707 321.176 337.118C325.064 343.097 328.619 354.516 334.75 357.593L335.851 357.408C338.556 352.992 333.363 342.431 334.869 338.819C335.329 337.715 342.703 334.591 344.5 333.795C344.403 329.75 344.352 326.508 343.652 322.537C342.814 317.788 341.04 312.277 340.709 307.569C342.544 302.706 343.767 301.501 347.332 297.945C359.394 303.127 360.843 303.58 366.611 315.75C372.573 315.277 377.176 314.302 383 312.879C385.351 313.932 388.747 315.686 390.181 317.919C393.434 322.986 395.695 329.03 398.643 334.338C402.013 340.405 407.708 347.297 410.225 353.567C390.807 364.112 386.33 375.852 386.555 397.181L386.504 445.733C386.431 464.447 383.263 486.072 397.719 500.215C402.974 505.356 409.773 510.177 417.057 512.163C431.477 515.395 450.921 514.422 465.999 514.441L526.76 514.495C529.02 514.495 535.44 514.179 537.084 514.934C537.272 516.326 537.207 516.651 537.105 518.071C533.219 532.084 533.765 536.851 537.872 550.141C537.361 551.134 537.309 551.808 536.592 551.866C522.245 553.031 505.571 552.026 491.368 552.009L418.183 551.996C410.373 552.005 388.309 553.235 381.643 551.51L344.733 551.503C341.514 552.011 336.185 551.636 332.868 551.294C332.868 551.294 331.094 549.921 330.907 549.776L330.213 549.963C326.693 552.281 309.932 552.838 306.54 551.196C301.661 551.823 291.775 551.551 286.481 551.543L249.939 551.494L194.19 551.55C183.273 551.659 169.128 552.186 158.402 552.016C157.114 509.16 161.57 470.807 173.715 429.861Z"/><path fill="#7B2CBE" transform="scale(0.995117 0.995117)" d="M386.555 397.181L386.504 445.733C386.431 464.447 383.263 486.072 397.719 500.215C402.974 505.356 409.773 510.177 417.057 512.163C431.477 515.395 450.921 514.422 465.999 514.441L526.76 514.495C529.02 514.495 535.44 514.179 537.084 514.934C537.272 516.326 537.207 516.651 537.105 518.071C533.219 532.084 533.765 536.851 537.872 550.141C537.361 551.134 537.309 551.808 536.592 551.866C522.245 553.031 505.571 552.026 491.368 552.009L418.183 551.996C410.373 552.005 388.309 553.235 381.643 551.51L344.733 551.503C341.514 552.011 336.185 551.636 332.868 551.294C332.868 551.294 331.094 549.921 330.907 549.776L330.213 549.963C327.856 546.013 320.025 545.976 315.872 543C309.295 538.286 315.805 528.393 314.371 522.596C312.327 514.328 301.885 522.666 296.915 519.348C293.548 512.954 306.326 501.241 299.282 495.346C289.81 493.396 285.269 511.573 275.346 512.244C273.634 512.36 271.565 511.884 270.346 510.635C265.22 505.385 263.406 493.106 262.781 486.186C262.308 480.957 263.642 473.945 267.256 470.33C274.734 462.849 288.838 462.719 298.681 462.379C304.827 462.485 315.934 460.652 319.181 467.424C321.607 472.485 324.716 486.248 331.889 485.647C338.475 481.106 330.089 464.761 327.549 459.111C331.686 449.557 336.73 448.195 342.235 440.273C345.468 435.621 346.753 427.543 348.976 422.508C354.891 409.113 373.835 402.233 386.555 397.181Z"/><path fill="#EFCAF5" transform="scale(0.995117 0.995117)" d="M344.733 551.503C351.647 545.775 358.356 539.019 364.97 548.973C369.633 549.051 378.063 548.721 381.643 551.51L344.733 551.503Z"/><path fill="#7B2CBE" transform="scale(0.995117 0.995117)" d="M173.715 429.861C176.672 433.461 177.979 437.705 180.791 441.426C183.34 444.8 190.752 448.555 192.225 452.135C199.242 469.197 203.247 482.516 217.5 495.824C212.896 486.001 201.177 465.512 200.44 455.938L200.844 455.011C202.594 455.473 204.821 458.802 205.628 460.444C211.896 473.209 220.8 484.747 227.171 497.321C228.174 499.3 228.845 508.869 229.895 512.34C236.113 516.807 242.501 517.809 249.711 519.922C268.444 525.41 286.655 533.624 301.289 546.802C302.892 548.244 304.797 549.865 306.54 551.196C301.661 551.823 291.775 551.551 286.481 551.543L249.939 551.494L194.19 551.55C183.273 551.659 169.128 552.186 158.402 552.016C157.114 509.16 161.57 470.807 173.715 429.861Z"/><path transform="scale(0.995117 0.995117)" d="M544.978 316.491C553.923 316.43 562.471 316.828 571.381 316.959C578.514 317.047 586.562 317.311 593.599 316.931C596.773 316.584 600.413 316.169 603.566 316.796C605.194 321.766 615.838 340.908 618.891 346.617C637.537 346.283 658.08 344.025 672.635 358.212C689.033 374.194 685.602 400.659 685.35 421.783C685.042 426.744 684.546 450.183 685.268 454.54C685.901 472.527 685.989 487.65 673.099 501.706C665.054 510.781 653.605 514.662 641.624 514.757C616.31 514.96 590.826 514.847 565.495 514.948C561.671 514.963 557.637 514.859 553.826 514.956C549.229 515.073 542.863 513.815 538.612 515.426C537.576 516.539 537.657 516.617 537.105 518.071C537.207 516.651 537.272 516.326 537.084 514.934C535.44 514.179 529.02 514.495 526.76 514.495L465.999 514.441C450.921 514.422 431.477 515.395 417.057 512.163C409.773 510.177 402.974 505.356 397.719 500.215C383.263 486.072 386.431 464.447 386.504 445.733L386.555 397.181C386.33 375.852 390.807 364.112 410.225 353.567C424.264 348.385 454.444 350.448 470.665 350.475L527.035 350.504C532.387 339.92 538.616 326.039 544.978 316.491Z"/><path transform="scale(0.995117 0.995117)" d="M549.004 324.197C558.037 324.466 566.588 323.95 575.763 324.423L583.801 324.507L588.816 335.89L589.667 337.493L595.361 350.514C596.419 352.667 596.624 353.519 597.289 355.866C598.794 356.689 601.61 356.284 603.469 356.174C598.486 346.162 592.72 333.782 586.827 324.513L598.853 324.51C603.724 334.43 608.961 345.485 614.465 355.023L633.793 355.086C646.481 355.153 657.889 355.032 667.556 364.669C678.272 375.352 677.659 390.645 677.495 404.753L677.406 409.454C677.719 424.611 677.516 440.292 677.501 455.488C677.591 470.641 678.536 484.146 667.118 495.957C659.471 503.868 649.317 506.639 638.521 506.583C607.814 506.423 577.072 506.254 546.356 506.114L462.03 505.982L461.994 358.66C483.652 359.393 509.341 358.76 531.05 358.432C537.881 349.786 544.228 334.64 549.004 324.197Z"/><path fill="#7B2CBE" transform="scale(0.995117 0.995117)" d="M549.004 324.197C558.037 324.466 566.588 323.95 575.763 324.423L583.801 324.507L588.816 335.89L589.667 337.493L595.361 350.514C596.419 352.667 596.624 353.519 597.289 355.866C583.351 345.729 583.337 355.572 586.323 367.128C554.62 361.187 523.748 380.875 515.764 412.127C507.78 443.378 525.425 475.462 556.093 485.456C551.003 491.048 548.494 498.99 546.356 506.114L462.03 505.982L461.994 358.66C483.652 359.393 509.341 358.76 531.05 358.432C537.881 349.786 544.228 334.64 549.004 324.197Z"/><path fill="#EFCAF5" transform="scale(0.995117 0.995117)" d="M575.763 324.423L583.801 324.507L588.816 335.89C583.645 333.461 579.449 328.614 575.763 324.423Z"/><path fill="#EFCAF5" transform="scale(0.995117 0.995117)" d="M586.625 349.894C587.711 346.393 588.467 340.21 589.667 337.493L595.361 350.514C592.678 350.444 589.354 350.105 586.625 349.894Z"/><path fill="#EFCAF5" transform="scale(0.995117 0.995117)" d="M586.827 324.513L598.853 324.51C603.724 334.43 608.961 345.485 614.465 355.023L633.793 355.086C646.481 355.153 657.889 355.032 667.556 364.669C678.272 375.352 677.659 390.645 677.495 404.753L677.406 409.454C677.719 424.611 677.516 440.292 677.501 455.488C671.89 454.877 658.399 455.024 654.155 453.444C645.021 450.042 645.593 445.444 633.877 444.137C636.544 434.833 636.966 425.029 635.109 415.531C630.298 390.926 610.965 371.745 586.323 367.128C583.337 355.572 583.351 345.729 597.289 355.866C598.794 356.689 601.61 356.284 603.469 356.174C598.486 346.162 592.72 333.782 586.827 324.513Z"/><path fill="#9D4EDC" transform="scale(0.995117 0.995117)" d="M644.015 408.963C658.546 409.123 664.607 412.068 677.222 418.499C677.168 415.169 677.175 412.776 677.406 409.454C677.719 424.611 677.516 440.292 677.501 455.488C671.89 454.877 658.399 455.024 654.155 453.444C645.021 450.042 645.593 445.444 633.877 444.137C636.544 434.833 636.966 425.029 635.109 415.531C638.213 413.089 640.729 411.129 644.015 408.963Z"/><path fill="#EFCAF5" transform="scale(0.995117 0.995117)" d="M633.877 444.137C645.593 445.444 645.021 450.042 654.155 453.444C658.399 455.024 671.89 454.877 677.501 455.488C677.591 470.641 678.536 484.146 667.118 495.957C659.471 503.868 649.317 506.639 638.521 506.583C607.814 506.423 577.072 506.254 546.356 506.114C548.494 498.99 551.003 491.048 556.093 485.456C571.885 490.602 589.091 489.108 603.76 481.316C618.429 473.523 629.3 460.103 633.877 444.137Z"/><path fill="#9D4EDC" transform="scale(0.995117 0.995117)" d="M568.512 373.187C598.562 369.497 625.879 390.954 629.412 421.022C632.946 451.091 611.347 478.296 581.261 481.673C551.395 485.026 524.432 463.619 520.925 433.771C517.417 403.923 538.683 376.85 568.512 373.187Z"/><path fill="#3D096D" transform="scale(0.995117 0.995117)" d="M568.935 390.741C589.338 387.395 608.576 401.266 611.847 421.681C615.118 442.097 601.176 461.283 580.749 464.479C560.428 467.658 541.362 453.805 538.108 433.495C534.854 413.186 548.637 394.069 568.935 390.741Z"/><path fill="#7B2CBE" transform="scale(0.995117 0.995117)" d="M446.516 358.757C450.458 358.627 454.538 358.627 458.492 358.574L458.683 455.179C458.698 469.29 457.965 492.256 459.01 505.957C444.889 506.207 425.069 507.979 412.917 501.055C395.227 489.662 394.671 477.551 394.866 457.874C395.043 440.031 394.513 421.706 394.932 403.792C395.178 393.256 393.893 382.9 399.815 373.58C410.61 356.593 428.929 358.728 446.516 358.757Z"/><path fill="#9D4EDC" transform="scale(0.995117 0.995117)" d="M412.103 189.169C434.813 183.537 457.173 178.516 480.701 176.589C554.332 170.557 628.657 187.149 692.192 225.004C708.889 234.952 723.188 246.469 738.362 258.296C734.597 260.729 730.593 263.284 726.491 265.126C724.599 260.761 722.52 255.619 720.41 251.419C702.891 243.117 672.047 240.573 653.305 247.028C636.669 252.759 639.694 264.156 628.372 274.717C621.923 280.732 608.835 286.927 604.593 294.428C601.727 299.496 606.629 310.075 603.566 316.796C600.413 316.169 596.773 316.584 593.599 316.931C586.562 317.311 578.514 317.047 571.381 316.959C562.471 316.828 553.923 316.43 544.978 316.491C538.616 326.039 532.387 339.92 527.035 350.504L470.665 350.475C454.444 350.448 424.264 348.385 410.225 353.567C407.708 347.297 402.013 340.405 398.643 334.338C395.695 329.03 393.434 322.986 390.181 317.919C388.747 315.686 385.351 313.932 383 312.879C377.176 314.302 372.573 315.277 366.611 315.75C360.843 303.58 359.394 303.127 347.332 297.945C343.767 301.501 342.544 302.706 340.709 307.569C341.04 312.277 342.814 317.788 343.652 322.537C344.352 326.508 344.403 329.75 344.5 333.795C342.703 334.591 335.329 337.715 334.869 338.819C333.363 342.431 338.556 352.992 335.851 357.408L334.75 357.593C328.619 354.516 325.064 343.097 321.176 337.118C315.186 333.707 305.869 333.641 298.881 330.409C289.063 325.87 285.019 321.12 281.115 311.361C286.397 299.074 295.81 292.959 304.315 281.61L305.532 282.845C315.357 292.663 326.963 292.312 324.355 275.651C325.033 275 328.735 271.641 328.921 271.297C332.225 265.176 316.003 259.831 313.209 258.99C309.549 260.117 301.803 263.469 297.791 265.041C295.742 260.605 293.897 256.67 291.583 252.341C301.731 246.363 313.115 236.736 323.338 229.92C341.648 217.712 358.987 209.512 378.959 200.708C384.968 197.02 404.837 190.918 412.103 189.169Z"/><path fill="#EFCAF5" transform="scale(0.995117 0.995117)" d="M412.103 189.169L412.49 189.817C421.011 191.302 443.389 188.23 452.113 186.465C459.992 184.665 467.684 182.114 475.85 182.02C493.217 181.821 509.337 189.332 526.223 192.223C529.933 192.859 533.545 192.822 537.276 193.003C541.586 193.211 546.555 192.515 550.507 194.338C553.802 200.806 536.565 205.574 536.169 211.602C536.024 213.82 537.842 219.579 538.45 221.753C535.585 228.28 532.516 228.592 530.327 233.911C529.22 236.599 529.268 243.218 528.209 246.951C524.845 258.806 510.379 262.341 500.252 266.781C490.487 271.063 478.255 274.287 468.911 279.08C458.104 284.584 460.872 307.146 444.128 299.457C433.48 294.568 425.6 283.473 421.025 272.956C417.52 264.899 424.224 263.436 424.855 257.472C424.416 256.104 424.489 255.638 423.06 254.869C420.436 253.458 415.506 254.061 414.396 250.786C411.056 240.93 417.063 231.516 404.84 225.934C396.738 222.234 385.648 221.97 376.486 221.375C364.293 213.103 375.539 209.341 379.153 201.68L378.959 200.708C384.968 197.02 404.837 190.918 412.103 189.169Z"/><path fill="#EFCAF5" transform="scale(0.995117 0.995117)" d="M571.381 316.959C572.137 312.433 575.22 302.837 581.487 304.474C586.811 305.866 590.267 312.374 593.842 316.282L593.599 316.931C586.562 317.311 578.514 317.047 571.381 316.959Z"/><path fill="#EFCAF5" transform="scale(0.995117 0.995117)" d="M328.373 235.644C341.36 234.788 338.86 241.174 348.677 246.269C355.408 249.763 366.441 249.247 372.375 254.812C373.936 256.275 373.429 260.992 373.38 263.05C379.306 267.64 394.823 272.378 395.967 279.99C394.258 285.83 383.922 284.045 380.782 288.274C379.147 290.477 382.619 297.787 383.635 300.253C377.623 299.409 372.781 298.36 367.006 296.547C364.155 294.388 363.119 291.728 361.397 289.136C357.507 284.135 349.195 291.854 344.047 290.626C341.866 290.667 340.772 286.389 342.052 285.003C345.835 280.907 353.993 277.493 358.644 274.48C355.45 264.476 351.449 262.171 341.942 258.549C329.944 261.347 318.999 262.205 315.231 247.94C317.263 239.972 320.637 237.533 328.373 235.644Z"/><path transform="scale(0.995117 0.995117)" d="M445.813 338.119C451.67 338.009 457.681 337.952 463.537 338.002C468.446 338.044 477.964 337.051 479.768 342.6C479.446 344.552 478.94 344.92 477.697 346.439C470.866 346.91 445.306 349.503 443.55 341.348C444.004 339.559 444.455 339.35 445.813 338.119Z"/><path fill="#EFCAF5" transform="scale(0.995117 0.995117)" d="M603.566 316.796C606.629 310.075 601.727 299.496 604.593 294.428C608.835 286.927 621.923 280.732 628.372 274.717C639.694 264.156 636.669 252.759 653.305 247.028C672.047 240.573 702.891 243.117 720.41 251.419C722.52 255.619 724.599 260.761 726.491 265.126C730.593 263.284 734.597 260.729 738.362 258.296C746.031 263.573 752.902 270.524 759.483 277.118C812.734 330.473 849.418 401.478 859.669 476.339C860.022 478.913 860.341 481.547 860.516 484.132C863.546 503.649 864.104 531.192 862.14 551.024C848.736 550.99 835.144 550.947 821.75 551.065C810.5 551.164 803.627 552.334 792.082 550.563C785.614 541.593 784.441 548.534 777.442 548.261C772.34 548.063 766.354 539.065 763.254 534.933L764.683 532.071C748.277 509.073 735.389 490.82 721.912 465.889L719.54 466.299L716.699 459.634C709.455 453.225 694.538 454.383 685.268 454.54C684.546 450.183 685.042 426.744 685.35 421.783C685.602 400.659 689.033 374.194 672.635 358.212C658.08 344.025 637.537 346.283 618.891 346.617C615.838 340.908 605.194 321.766 603.566 316.796Z"/><path fill="#7B2CBE" transform="scale(0.995117 0.995117)" d="M795.306 485.098C792.229 480.828 784.723 470.439 787.349 465.134C790.536 458.696 802.532 471.758 807.299 474.719C808.927 473.348 810.856 471.943 812.564 470.636C821.259 477.525 825.931 482.045 837.812 482.027C844.844 482.016 853.641 482.902 860.516 484.132C863.546 503.649 864.104 531.192 862.14 551.024C848.736 550.99 835.144 550.947 821.75 551.065C810.5 551.164 803.627 552.334 792.082 550.563C785.614 541.593 784.441 548.534 777.442 548.261C772.34 548.063 766.354 539.065 763.254 534.933L764.683 532.071L768.398 536.821C776.728 531.956 785.659 527.958 793.882 522.801C803.513 516.761 813.876 510.077 821.959 502.057C830.131 493.95 816.615 483.623 810.724 478.596C805.077 481.887 801.572 483.102 795.306 485.098Z"/><path fill="#9D4EDC" transform="scale(0.995117 0.995117)" d="M685.35 421.783C694.153 425.534 702.551 430.523 711.301 433.789C718.042 436.305 725.021 436.146 731.953 439.677C728.644 445.712 717.335 453.612 718.264 457.488L716.699 459.634C709.455 453.225 694.538 454.383 685.268 454.54C684.546 450.183 685.042 426.744 685.35 421.783Z"/><path fill="#7B2CBE" transform="scale(0.995117 0.995117)" d="M718.264 457.488L721.912 465.889L719.54 466.299L716.699 459.634L718.264 457.488Z"/><path fill="#9D4EDC" transform="scale(0.995117 0.995117)" d="M177.65 255.886C190.431 236.785 216.481 212.097 233.628 197.045C410.645 41.6603 683.454 64.3302 836.493 242.37C833.053 244.741 814.763 243.805 810.6 242.354C799.072 238.336 785.756 239.137 774.641 245.493C774.94 246.723 775.615 249.449 775.648 250.594C776.025 263.731 803.186 283.932 805.356 292.971C801.797 289.653 797.998 284.894 794.859 281.203C655.651 117.508 396.664 105.58 247.103 261.87C240.975 268.274 234.949 275.477 228.609 281.557C230.223 276.107 243.374 263.623 239.409 257.182C236.759 252.875 227.522 247.941 222.687 246.038C217.012 246.796 211.256 249.889 206.476 250.671C194.106 252.694 189.729 250.265 177.65 255.886Z"/><path fill="#7B2CBE" transform="scale(0.995117 0.995117)" d="M774.641 245.493C785.756 239.137 799.072 238.336 810.6 242.354C814.763 243.805 833.053 244.741 836.493 242.37C851.395 258.858 864.234 276.899 876.194 295.607C923.985 370.363 949.001 462.778 943.479 551.54C924.568 551.203 905.972 551.5 886.783 551.035C892.081 467.825 867.827 381.779 820.18 313.471C815.348 306.542 810.004 300.079 805.356 292.971C803.186 283.932 776.025 263.731 775.648 250.594C775.615 249.449 774.94 246.723 774.641 245.493Z"/><path fill="#7B2CBE" transform="scale(0.995117 0.995117)" d="M177.65 255.886C189.729 250.265 194.106 252.694 206.476 250.671C211.256 249.889 217.012 246.796 222.687 246.038C227.522 247.941 236.759 252.875 239.409 257.182C243.374 263.623 230.223 276.107 228.609 281.557L228.2 282.194C223.591 289.234 216.286 296.636 211.144 303.632C156.721 377.678 133.337 460.015 135.052 551.994C117.045 551.139 97.945 551.827 79.906 552.029C78.8042 543.106 79.6041 530.609 79.7433 521.287C80.9815 438.359 108.175 354.699 154.845 286.258C161.815 276.038 169.537 265.155 177.65 255.886Z"/></svg>