<?xml version="1.0" encoding="utf-8" ?><svg xmlns="http://www.w3.org/2000/svg" xmlns:xlink="http://www.w3.org/1999/xlink" width="54" height="54" viewBox="0 0 50 50"><defs><linearGradient id="gradient_0" gradientUnits="userSpaceOnUse" x1="749.54169" y1="233.37624" x2="291.84943" y2="674.46356"><stop offset="0" stop-color="#1D107F"/><stop offset="1" stop-color="#5A1DA1"/></linearGradient></defs><path fill="url(#gradient_0)" transform="matrix(0.0488281 0 0 0.0488281 0 -1.90735e-06)" d="M127.718 397.725C135.478 369.857 145.851 346.12 159.396 320.719C247.482 155.537 442.089 75.5788 621.534 126.462C826.165 184.486 945.321 385.026 904.127 592.829L900.744 607.697C884.793 668.667 862.905 716.028 823.166 765.823C816.197 774.555 809.552 780.711 802.71 788.606C803.74 790.837 803.862 790.234 803.556 792.29C800.782 796.134 797.089 796.244 793.166 799.344C788.086 803.524 783.298 808.076 778.42 812.398C738.277 847.967 690.65 875.071 639.858 892.196C637.272 893.068 632.617 894.891 630.023 895.077C626.484 896.841 619.759 898.577 615.748 899.644C504.59 929.203 384.631 908.647 289.144 844.656C268.699 830.955 250.678 817.232 233.083 799.91C230.72 798.235 222.873 790.06 220.485 787.656C191.858 758.961 168.991 723.75 150.973 687.637C138.016 663.479 128.499 632.886 121.672 606.417C120.471 602.212 119.532 597.225 118.612 592.899C111.352 557.905 109.689 517.538 112.002 482.038C112.319 477.162 113.266 465.218 114.36 460.667C115.091 446.188 123.313 411.541 127.718 397.725Z"/><defs><linearGradient id="gradient_1" gradientUnits="userSpaceOnUse" x1="537.46283" y1="498.35098" x2="472.52423" y2="768.03821"><stop offset="0" stop-color="#110C7B"/><stop offset="1" stop-color="#7829B0"/></linearGradient></defs><path fill="url(#gradient_1)" transform="matrix(0.0488281 0 0 0.0488281 0 -1.90735e-06)" d="M685.088 534.398C692.07 534.849 712.446 540.067 720.17 541.785C765.32 551.825 809.636 565.594 851.998 584.251C868.23 591.4 885.238 598.871 900.744 607.697C884.793 668.667 862.905 716.028 823.166 765.823C816.197 774.555 809.552 780.711 802.71 788.606C803.74 790.837 803.862 790.234 803.556 792.29C800.782 796.134 797.089 796.244 793.166 799.344C788.086 803.524 783.298 808.076 778.42 812.398C738.277 847.967 690.65 875.071 639.858 892.196C637.272 893.068 632.617 894.891 630.023 895.077C626.484 896.841 619.759 898.577 615.748 899.644C504.59 929.203 384.631 908.647 289.144 844.656C268.699 830.955 250.678 817.232 233.083 799.91C230.72 798.235 222.873 790.06 220.485 787.656C191.858 758.961 168.991 723.75 150.973 687.637C138.016 663.479 128.499 632.886 121.672 606.417C125.638 604.898 130.107 602.824 133.979 601.063C169.768 584.784 205.877 570.657 243.66 559.616C274.102 550.72 305.053 541.562 336.424 536.168L336.428 537.742C336.493 549.791 338.722 558.747 347.437 567.796C351.367 571.876 359.749 576.203 365.265 576.666C375.894 577.559 388.324 577.175 399.143 577.217L471.75 577.148L594.244 577.198C612.305 577.219 630.249 577.308 648.423 577.169C663.412 577.055 675.503 572.143 682.406 558.009C686.28 550.078 685.308 542.828 685.088 534.398Z"/><defs><linearGradient id="gradient_2" gradientUnits="userSpaceOnUse" x1="520.69476" y1="893.34357" x2="507.75665" y2="729.78717"><stop offset="0" stop-color="#B377F2"/><stop offset="1" stop-color="#C89EFB"/></linearGradient></defs><path fill="url(#gradient_2)" transform="matrix(0.0488281 0 0 0.0488281 0 -1.90735e-06)" d="M439.865 734.615C452.601 733.986 465.141 732.6 477.838 732.303C579.697 729.915 682.293 743.613 778.244 778.64C781.834 779.95 801.297 788.545 802.71 788.606C803.74 790.837 803.862 790.234 803.556 792.29C800.782 796.134 797.089 796.244 793.166 799.344C788.086 803.524 783.298 808.076 778.42 812.398C738.277 847.967 690.65 875.071 639.858 892.196C637.272 893.068 632.617 894.891 630.023 895.077C626.484 896.841 619.759 898.577 615.748 899.644C504.59 929.203 384.631 908.647 289.144 844.656C268.699 830.955 250.678 817.232 233.083 799.91C230.72 798.235 222.873 790.06 220.485 787.656C229.16 783.331 241.522 779.272 250.851 775.855C294.023 760.041 339.677 749.028 385.016 741.465C396.669 739.521 407.986 738.25 419.665 736.956C423.251 736.559 437.42 735.345 439.865 734.615Z"/><defs><linearGradient id="gradient_3" gradientUnits="userSpaceOnUse" x1="424.92581" y1="831.65649" x2="399.41156" y2="896.78497"><stop offset="0" stop-color="#802DB8"/><stop offset="1" stop-color="#B241E9"/></linearGradient></defs><path fill="url(#gradient_3)" transform="matrix(0.0488281 0 0 0.0488281 0 -1.90735e-06)" d="M233.083 799.91C238.918 797.184 245.915 794.831 252.005 792.294C262.778 802.683 275.772 812.338 287.726 821.162C369.333 881.393 474.845 905.563 574.707 888.845C583.319 887.403 592.248 884.739 600.696 883.439C597.156 886.325 565.954 891.439 559.987 891.665L560.161 892.367C565.492 894.459 580.486 893.008 586.848 895.651C588.192 896.209 591.159 896.421 592.362 897.264C595.975 899.798 594.336 900.454 598.725 901.884C604.629 903.806 625.924 893.873 630.023 895.077C626.484 896.841 619.759 898.577 615.748 899.644C504.59 929.203 384.631 908.647 289.144 844.656C268.699 830.955 250.678 817.232 233.083 799.91Z"/><path fill="#38138F" transform="matrix(0.0488281 0 0 0.0488281 0 -1.90735e-06)" d="M773.081 792.145C778.445 794.321 787.732 798.22 793.166 799.344C788.086 803.524 783.298 808.076 778.42 812.398C738.277 847.967 690.65 875.071 639.858 892.196C637.272 893.068 632.617 894.891 630.023 895.077C625.924 893.873 604.629 903.806 598.725 901.884C594.336 900.454 595.975 899.798 592.362 897.264C591.159 896.421 588.192 896.209 586.848 895.651C580.486 893.008 565.492 894.459 560.161 892.367L559.987 891.665C565.954 891.439 597.156 886.325 600.696 883.439C605.19 881.685 612.066 880.387 616.978 878.989C673.062 863.019 729.675 831.247 773.081 792.145Z"/><defs><linearGradient id="gradient_4" gradientUnits="userSpaceOnUse" x1="551.76312" y1="746.23822" x2="557.31183" y2="874.1416"><stop offset="0" stop-color="#1D0A7D"/><stop offset="1" stop-color="#6924A6"/></linearGradient></defs><path fill="url(#gradient_4)" transform="matrix(0.0488281 0 0 0.0488281 0 -1.90735e-06)" d="M430.844 752.008C435.574 751.393 440.47 750.823 445.171 750.097C459.9 785.866 483.387 829.639 511.775 856.483C518.565 848.933 525.25 841.662 531.534 833.668C551.988 807.65 565.433 781.496 578.678 751.396C583.216 751.712 588.695 751.953 593.129 752.59C579.726 783.603 559.882 822.19 537.848 847.796C548.647 843.904 560.428 839.727 570.626 834.458C603.22 817.618 636.611 790.342 659.462 761.745C664.302 762.153 670.372 763.07 675.18 764.106C647.907 800.376 611.529 828.536 571.709 849.608C633.677 840.441 681.99 818.244 730.108 777.948C738.041 780.206 746.128 782.428 754.004 784.836C746.335 792.316 734.093 801.005 725.21 807.443C661.175 853.848 586.433 877.483 507.464 877.007C505.736 876.997 501.3 876.889 499.681 876.613C497.422 875.367 493.296 875.525 489.394 872.951C485.516 870.394 478.886 868.412 474.801 865.811C472.443 864.311 470.556 861.756 468.077 860.447C455.693 856.799 443.659 852.394 431.051 849.467C420.859 847.007 413.038 845.92 404.238 839.933C410.779 841.968 435.29 848.706 441.067 848.077C444.893 848.646 448.525 849.331 452.326 850.057C418.827 833.001 390.933 810.353 366.423 781.811C362.815 777.608 355.107 768.393 352.297 763.827C357.129 762.822 362.044 761.745 366.886 760.835C372.21 767.322 378.118 774.906 383.794 780.964C413.329 812.486 444.882 832.786 484.837 848.176C477.07 837.585 468.052 825.567 461.392 814.292C449.85 794.755 439.963 772.735 430.844 752.008Z"/><path fill="#7528B1" transform="matrix(0.0488281 0 0 0.0488281 0 -1.90735e-06)" d="M270.487 785.318C277.32 782.879 286.101 780.342 293.172 778.078C302.392 785.158 311.156 792.051 320.862 798.615C347.123 816.374 376.311 830.113 406.543 839.588C418.344 843.286 429.597 844.994 441.067 848.077C435.29 848.706 410.779 841.968 404.238 839.933C413.038 845.92 420.859 847.007 431.051 849.467C443.659 852.394 455.693 856.799 468.077 860.447C470.556 861.756 472.443 864.311 474.801 865.811C478.886 868.412 485.516 870.394 489.394 872.951C493.296 875.525 497.422 875.367 499.681 876.613C489.543 876.872 473.287 875.094 463.163 873.849C393.356 865.268 322.794 832.509 270.487 785.318Z"/><defs><linearGradient id="gradient_5" gradientUnits="userSpaceOnUse" x1="290.70447" y1="700.69214" x2="271.91199" y2="796.12408"><stop offset="0" stop-color="#702AAC"/><stop offset="1" stop-color="#9539C7"/></linearGradient></defs><path fill="url(#gradient_5)" transform="matrix(0.0488281 0 0 0.0488281 0 -1.90735e-06)" d="M150.973 687.637L151.694 687.232C150.777 683.417 144.521 674.163 145.507 672.274C147.165 673.477 149.632 675.35 151.452 676.219C152.284 676.616 154.239 676.571 155.669 677.065C165.965 680.624 177.975 683.758 184.468 693.319C185.432 694.737 187.311 696.469 188.712 697.246L189.29 696.377C190.934 703.487 196.827 707.177 203.542 703.439C206.767 704.362 219.591 699.41 223.085 697.255C226.678 695.038 238.316 694.062 242.541 695.537C255.328 700.001 268.182 708.999 280.655 713.564C286.231 715.606 298.136 714.087 304.345 715.584C319.11 717.103 332.518 722.598 347.469 720.87C351.156 720.444 358.912 722.987 363.07 722.583C374.18 722.447 384.413 722.701 395.359 725.157C399.796 726.153 402.25 728.123 406.888 726.849C407.345 727.857 407.163 727.347 407.443 728.374C416.301 730.805 429.056 731.559 438.137 734.07C438.198 734.087 439.268 733.969 439.316 733.965L439.865 734.615C437.42 735.345 423.251 736.559 419.665 736.956C407.986 738.25 396.669 739.521 385.016 741.465C339.677 749.028 294.023 760.041 250.851 775.855C241.522 779.272 229.16 783.331 220.485 787.656C191.858 758.961 168.991 723.75 150.973 687.637Z"/><path fill="#F8F8FA" transform="matrix(0.0488281 0 0 0.0488281 0 -1.90735e-06)" d="M237.555 715.878C238.924 719.534 240.694 723.886 241.907 727.525C243.859 727.751 251.679 728.337 252.794 729.08L252.363 730.038C252.627 732.771 252.904 732.873 250.925 735.416C249.78 736.887 246.797 739.499 245.252 740.485L246.901 748.392C244.928 746.998 242.976 745.6 240.959 744.269C234.774 744.426 233.476 747.989 228.214 749.304L227.227 748.962L226.928 747.717C226.838 744.498 227.919 739.789 229.3 736.85C224.068 737.432 221.462 733.839 221.043 729.048L221.339 728.302C225.103 727.758 228.284 727.997 231.961 727.749L237.555 715.878Z"/><path fill="#38138F" transform="matrix(0.0488281 0 0 0.0488281 0 -1.90735e-06)" d="M236.803 740.922L240.959 744.269C234.774 744.426 233.476 747.989 228.214 749.304L227.227 748.962L226.928 747.717C229.544 745.589 233.896 742.864 236.803 740.922Z"/><path fill="#38138F" transform="matrix(0.0488281 0 0 0.0488281 0 -1.90735e-06)" d="M245.252 740.485C245.001 739.48 244.805 738.471 244.594 737.457C245.549 733.93 249.243 732.15 252.363 730.038C252.627 732.771 252.904 732.873 250.925 735.416C249.78 736.887 246.797 739.499 245.252 740.485Z"/><path fill="#38138F" transform="matrix(0.0488281 0 0 0.0488281 0 -1.90735e-06)" d="M221.043 729.048C223.441 730.631 228.547 734.12 229.3 736.85C224.068 737.432 221.462 733.839 221.043 729.048Z"/><path fill="#F8F8FA" transform="matrix(0.0488281 0 0 0.0488281 0 -1.90735e-06)" d="M190.001 638.811C190.067 638.704 190.133 638.597 190.199 638.49C190.665 635.171 193.13 629.342 195.257 626.6C204.164 615.115 220.133 608.566 234.159 606.664C247.6 604.842 263.975 605.506 275.18 614.024C281.562 618.876 283.366 624.321 284.156 631.744C285.831 633.997 285.634 635.613 285.331 638.297C284.115 649.038 276.821 660.032 267.941 666.078C253.593 675.847 235.541 681.744 219.073 674.3C215.814 679.599 212.815 684.437 209.911 689.949C207.838 693.883 205.682 699.94 203.542 703.439C196.827 707.177 190.934 703.487 189.29 696.377C189.452 694.61 189.908 693.266 190.386 691.57C190.971 686.255 201.198 670.311 204.37 664.826L205.748 662.691C204.933 660.886 197.963 656.75 195.927 654.692C191.453 650.169 190.254 644.913 190.001 638.811Z"/><path fill="#1A0975" transform="matrix(0.0488281 0 0 0.0488281 0 -1.90735e-06)" d="M284.156 631.744C285.831 633.997 285.634 635.613 285.331 638.297C284.115 649.038 276.821 660.032 267.941 666.078C253.593 675.847 235.541 681.744 219.073 674.3C215.814 679.599 212.815 684.437 209.911 689.949C207.838 693.883 205.682 699.94 203.542 703.439C196.827 707.177 190.934 703.487 189.29 696.377C189.452 694.61 189.908 693.266 190.386 691.57C191.407 695.054 195.05 700.894 199.034 700.495C202.638 700.134 206.117 689.611 207.715 686.606C211.167 680.115 214.375 674.348 218.796 668.503C223.039 669.953 227.542 671.502 232.093 671.547C257.088 671.794 280.9 658.172 284.156 631.744Z"/><path fill="#38138F" transform="matrix(0.0488281 0 0 0.0488281 0 -1.90735e-06)" d="M236.599 622.109L237.579 621.851C239.23 621.405 238.536 621.439 239.636 621.023C244.721 619.099 253.958 619.39 258.95 620.925C265.038 622.797 267.665 626.561 271.255 631.025C271.917 652.39 240.605 664.187 223.048 662.218C228.178 655.207 245.656 636.244 247.643 630.45C247.077 623.373 242.557 622.661 236.599 622.109Z"/><path fill="#1A0975" transform="matrix(0.0488281 0 0 0.0488281 0 -1.90735e-06)" d="M247.643 630.45C248.352 631.682 250.277 634.706 249.272 636.16C245.054 642.26 229.908 661.245 223.048 662.218C228.178 655.207 245.656 636.244 247.643 630.45Z"/><path fill="#1A0975" transform="matrix(0.0488281 0 0 0.0488281 0 -1.90735e-06)" d="M206.828 650.106C205.95 643.987 206.471 639.235 210.587 633.777C221.808 618.897 248.051 608.132 265.113 619.044C269.125 621.61 270.662 626.473 271.255 631.025C267.665 626.561 265.038 622.797 258.95 620.925C253.958 619.39 244.721 619.099 239.636 621.023C238.536 621.439 239.23 621.405 237.579 621.851L236.599 622.109C232.516 622.782 229.21 623.188 226.295 626.479C220.197 635.517 215.575 646.204 209.283 655.547L206.828 650.106Z"/><path fill="#38138F" transform="matrix(0.0488281 0 0 0.0488281 0 -1.90735e-06)" d="M206.828 650.106C208.815 646.963 209.527 641.954 212.506 637.629C215.971 632.599 219.986 627.901 226.295 626.479C220.197 635.517 215.575 646.204 209.283 655.547L206.828 650.106Z"/><path fill="#38138F" transform="matrix(0.0488281 0 0 0.0488281 0 -1.90735e-06)" d="M204.37 664.826C194.764 662.923 183.465 648.521 190.001 638.811C190.254 644.913 191.453 650.169 195.927 654.692C197.963 656.75 204.933 660.886 205.748 662.691L204.37 664.826Z"/><path fill="#F8F8FA" transform="matrix(0.0488281 0 0 0.0488281 0 -1.90735e-06)" d="M471.373 621.704C484.522 623.153 483.043 629.979 479.866 640.002C493.2 634.552 505.176 630.113 508.281 649.687L508.883 648.729C511.812 653.807 507.853 659.355 504.736 663.596C499.456 670.78 495.338 677.623 491.211 685.515L490.672 684.594C490.349 685.951 490.463 686.08 490.622 687.495C491.725 688.933 491.032 688.494 492.729 688.924C509.691 685.468 517.536 657.16 527.62 646.513C544.086 629.129 577.655 626.985 576.682 659.331C578.422 662.683 577.772 667.645 576.519 671.125C569.811 689.748 550.064 707.561 529.078 700.672C521.512 698.188 517.225 691.744 513.784 685.003C507.711 696.032 495.912 707.443 482.183 700.377C479.424 698.958 478.412 696.852 477.567 694.007C477.702 693.596 477.896 692.909 478.084 692.553C468.234 679.19 480.51 663.279 487.5 651.28L479.406 652.91C472.665 663.855 467.197 672.411 459.324 682.684C447.554 698.038 426.532 715.526 412.378 690.47C406.153 696.616 399.713 702.367 390.376 702.439C382.255 702.502 373.978 696.316 373.543 687.882C373.499 686.942 373.509 687.165 372.994 686.441C369.925 688.538 367.198 692.803 363.985 695.106C346.833 707.402 319.318 707.17 312.432 683.715C307.048 690.798 303.329 695.628 295.252 699.718C285.588 704.611 268.782 703.202 271.805 688.58C269.107 678.49 283.887 655.205 287.833 645.149C289.6 640.645 292.453 631.454 298.752 636.268C302.654 639.25 304.505 641.148 305.305 646.028L305.475 645.112C305.66 644.892 305.846 644.672 306.031 644.452C309.1 651.472 292.717 677.78 289.515 686.243L288.621 688.604C296.493 686.326 309.917 672.316 314.319 665.318C323.24 651.138 332.154 637.173 350.525 634.851C362.89 633.288 370.68 640.269 371.803 652.886L372.283 652.724C373.147 656.547 373.424 657.134 371.77 660.637C367.274 670.164 354.736 664.576 357.357 656.4C357.65 652.918 357.881 652.565 359.515 649.377C350.209 650.31 338.67 664.834 335.016 672.891C333.972 675.193 332.692 681.8 331.371 682.786L331.183 682.797C332.673 689.912 341.46 690.548 346.992 689.043C368.793 683.114 378.263 662.303 391.945 647.187C400.667 637.55 421.028 628.327 432.807 637.487C440.273 643.293 444.103 642.348 446.527 653.248C447.902 653.717 447.261 653.352 448.23 654.811C448.662 658.1 432.56 685.029 429.56 687.568C431.089 687.617 433.294 687.615 434.741 687.242C448.181 683.778 464.361 658.804 471.383 647.615C460.054 639.573 464.614 631.243 471.373 621.704Z"/><path fill="#1A0975" transform="matrix(0.0488281 0 0 0.0488281 0 -1.90735e-06)" d="M477.664 648.528C482.341 648.556 486.455 647.724 490.966 646.661L487.5 651.28L479.406 652.91C472.665 663.855 467.197 672.411 459.324 682.684C447.554 698.038 426.532 715.526 412.378 690.47C406.153 696.616 399.713 702.367 390.376 702.439C382.255 702.502 373.978 696.316 373.543 687.882C373.499 686.942 373.509 687.165 372.994 686.441C369.925 688.538 367.198 692.803 363.985 695.106C346.833 707.402 319.318 707.17 312.432 683.715C307.048 690.798 303.329 695.628 295.252 699.718C285.588 704.611 268.782 703.202 271.805 688.58C278.545 704.199 293.734 696.36 302.71 687.98C306.418 684.518 309.459 681.087 312.811 677.298C313.59 681.965 314.609 685.708 317.956 689.26C327.693 699.597 344.714 699.583 356.706 693.486C363.027 690.272 368.272 685.425 373.432 680.751C374.768 690.215 378.762 696.935 389.529 696.91C399.182 696.888 406.179 689.906 412.364 683.317C416.003 693.086 423.064 699.82 433.831 696.479C451.6 690.964 468.86 663.944 477.664 648.528Z"/><path fill="#1A0975" transform="matrix(0.0488281 0 0 0.0488281 0 -1.90735e-06)" d="M576.682 659.331C578.422 662.683 577.772 667.645 576.519 671.125C569.811 689.748 550.064 707.561 529.078 700.672C521.512 698.188 517.225 691.744 513.784 685.003C507.711 696.032 495.912 707.443 482.183 700.377C479.424 698.958 478.412 696.852 477.567 694.007C477.702 693.596 477.896 692.909 478.084 692.553C492.021 705.848 505.792 689.572 514.278 679.179C521.017 697.557 538.608 701.827 554.689 691.514C565.978 684.274 573.889 672.519 576.682 659.331Z"/><path fill="#1A0975" transform="matrix(0.0488281 0 0 0.0488281 0 -1.90735e-06)" d="M331.183 682.797C330.389 671.073 335.17 662.008 343.115 653.612C347.139 649.361 353.776 642.967 359.892 642.762C361.608 643.536 361.055 642.924 361.717 644.555C361.557 646.433 360.517 647.746 359.515 649.377C350.209 650.31 338.67 664.834 335.016 672.891C333.972 675.193 332.692 681.8 331.371 682.786L331.183 682.797Z"/><path fill="#1A0975" transform="matrix(0.0488281 0 0 0.0488281 0 -1.90735e-06)" d="M305.305 646.028L305.475 645.112C305.66 644.892 305.846 644.672 306.031 644.452C309.1 651.472 292.717 677.78 289.515 686.243L288.621 688.604C288.317 688.276 288.083 688.062 287.872 687.641C285.247 682.39 302.985 653.51 305.305 646.028Z"/><path fill="#1A0975" transform="matrix(0.0488281 0 0 0.0488281 0 -1.90735e-06)" d="M508.281 649.687L508.883 648.729C511.812 653.807 507.853 659.355 504.736 663.596C499.456 670.78 495.338 677.623 491.211 685.515L490.672 684.594C492.292 675.053 498.458 666.487 503.592 658.55C505.33 655.863 507.507 652.747 508.281 649.687Z"/><path fill="#1A0975" transform="matrix(0.0488281 0 0 0.0488281 0 -1.90735e-06)" d="M446.527 653.248C447.902 653.717 447.261 653.352 448.23 654.811C448.662 658.1 432.56 685.029 429.56 687.568C429.537 678.797 442.845 661.952 446.527 653.248Z"/><path fill="#1A0975" transform="matrix(0.0488281 0 0 0.0488281 0 -1.90735e-06)" d="M371.803 652.886L372.283 652.724C373.147 656.547 373.424 657.134 371.77 660.637C367.274 670.164 354.736 664.576 357.357 656.4C362.733 662.668 369.545 660.887 371.803 652.886Z"/><path fill="#38138F" transform="matrix(0.0488281 0 0 0.0488281 0 -1.90735e-06)" d="M531.283 678.097C531.935 665.572 555.865 630.619 564.513 646.943C566.022 658.488 561.948 668.201 555.115 677.423C550.63 683.475 541.122 692.154 533.182 687.318C531.027 686.006 530.734 680.069 531.283 678.097Z"/><path fill="#1A0975" transform="matrix(0.0488281 0 0 0.0488281 0 -1.90735e-06)" d="M531.283 678.097C531.935 665.572 555.865 630.619 564.513 646.943C560.363 647.036 557.426 647.121 553.826 649.625C544.129 656.371 536.671 667.903 532.192 678.622L531.603 678.598L531.283 678.097Z"/><path fill="#38138F" transform="matrix(0.0488281 0 0 0.0488281 0 -1.90735e-06)" d="M392.489 687.534C388.612 670.879 418.277 636.236 429.137 642.693C429.853 644.466 429.538 644.169 429.064 646.437C424.452 658.759 407.763 688.046 392.489 687.534Z"/><path fill="#1A0975" transform="matrix(0.0488281 0 0 0.0488281 0 -1.90735e-06)" d="M392.489 687.534C388.612 670.879 418.277 636.236 429.137 642.693C429.853 644.466 429.538 644.169 429.064 646.437C413.546 649.749 403.501 662.166 396.779 675.88C395.202 679.099 395.009 685.38 392.489 687.534Z"/><path fill="#F8F8FA" transform="matrix(0.0488281 0 0 0.0488281 0 -1.90735e-06)" d="M792.994 641.047C797.86 633.68 803.576 624.365 806.42 616.012C807.596 612.558 807.454 608.282 808.502 605.467C812.176 603.343 818.808 607.085 821.265 610.067C828.305 618.611 817.761 630.346 813.021 638.185C804.051 653.019 793.334 668.527 788.669 685.421C788.406 686.373 789.14 686.87 789.688 687.441C800.529 690.67 815.963 663.485 823.463 662.514C825.12 663.189 824.545 662.635 825.318 664.156C825.138 670.625 805.761 688.192 800.34 692.492C790.056 700.651 776.441 698.63 773.099 684.219C765.949 696.218 754.475 707.767 738.638 699.787C734.715 697.81 731.962 693.402 729.394 689.872C722.275 697.195 708.009 708.719 697.607 698.994C695.208 696.751 694.562 694.776 695.669 691.649C695.114 690.119 694.358 687.689 694.662 686.104C697.514 671.261 708.282 661.755 711.511 646.046C700.425 650.987 671.322 685.81 667.16 697.669C661.53 696.038 657.606 694.553 655.01 689.055C649.685 690.107 641.353 704.991 630.499 701.732C627.205 700.743 616.355 698.292 619.59 691.993L620.099 691.654C619.357 690.151 618.966 688.846 618.439 687.269C616.756 687.659 614.911 689.64 613.709 690.877C606.457 698.338 598.848 704.568 587.759 700.599C582.938 698.874 577.719 694.282 579.064 688.492C573.693 676.746 579.536 670.706 585.344 660.766C588.269 655.76 591.375 651.035 593.982 645.838C595.728 642.358 595.357 639.174 596.823 635.814C603.495 630.094 613.061 639.06 613.496 646.806C616.934 650.728 615.209 652.377 612.998 656.613C609.217 663.857 604.234 670.539 600.374 677.751C599.185 679.878 596.089 686.922 594.979 687.979C608.081 688.402 628.047 658.985 632.62 648.14C633.799 646.4 635.694 635.232 637.201 634.716C645.128 632.005 652.091 639.596 651.692 646.466C652.931 648.428 653.811 649.759 653.194 652.151C652.392 655.262 636.48 686.048 634.748 687.155C643.265 689.65 663.281 662.649 668.024 655.945C670.521 652.416 671.928 639.216 674.811 634.691C678.485 633.468 682.471 634.294 685.448 636.611C693.902 643.191 688.775 651.112 684.696 658.396C684.053 659.543 681.051 664.961 681.169 665.859C689.639 656.262 696.874 647.46 706.672 638.585C715.593 630.504 721.383 632.993 725.747 644.552C727.575 649.391 725.702 654.701 723.702 659.351L724.171 660.264C722.626 664.043 715.872 675.709 715.308 678.357C718.099 677.021 725.382 662.25 726.253 658.733L726.469 657.884C726.513 657.697 726.557 657.51 726.6 657.324C728.288 660.866 716.641 681.275 712.933 684.075C711.322 685.291 711.985 683.576 711.297 686.386C713.912 686.863 714.07 684.012 715.918 685.406C729.485 677.28 738.062 655.108 750.624 645.343C763.406 635.406 780.371 625.493 792.994 641.047Z"/><path fill="#1A0975" transform="matrix(0.0488281 0 0 0.0488281 0 -1.90735e-06)" d="M729.469 682.715C730.89 686.762 732.607 690.483 735.917 693.368C751.674 707.102 769.107 682.995 772.694 682.709L773.099 684.219C765.949 696.218 754.475 707.767 738.638 699.787C734.715 697.81 731.962 693.402 729.394 689.872C722.275 697.195 708.009 708.719 697.607 698.994C695.208 696.751 694.562 694.776 695.669 691.649C705.095 706.192 721.819 690.654 729.469 682.715Z"/><path fill="#1A0975" transform="matrix(0.0488281 0 0 0.0488281 0 -1.90735e-06)" d="M619.774 679.468C618.846 682.852 618.561 683.722 618.439 687.269C616.756 687.659 614.911 689.64 613.709 690.877C606.457 698.338 598.848 704.568 587.759 700.599C582.938 698.874 577.719 694.282 579.064 688.492C591.859 707.062 609.076 689.576 619.774 679.468Z"/><path fill="#1A0975" transform="matrix(0.0488281 0 0 0.0488281 0 -1.90735e-06)" d="M620.099 691.654C634.007 706.117 650.541 686.931 659.338 676.835C657.521 680.793 655.434 684.723 655.01 689.055C649.685 690.107 641.353 704.991 630.499 701.732C627.205 700.743 616.355 698.292 619.59 691.993L620.099 691.654Z"/><path fill="#1A0975" transform="matrix(0.0488281 0 0 0.0488281 0 -1.90735e-06)" d="M613.496 646.806C616.934 650.728 615.209 652.377 612.998 656.613C609.217 663.857 604.234 670.539 600.374 677.751C599.185 679.878 596.089 686.922 594.979 687.979C592.168 676.647 609.865 658.708 613.496 646.806Z"/><path fill="#1A0975" transform="matrix(0.0488281 0 0 0.0488281 0 -1.90735e-06)" d="M651.692 646.466C652.931 648.428 653.811 649.759 653.194 652.151C652.392 655.262 636.48 686.048 634.748 687.155C633.148 681.13 648.57 656.33 651.692 646.466Z"/><path fill="#38138F" transform="matrix(0.0488281 0 0 0.0488281 0 -1.90735e-06)" d="M723.702 659.351L724.171 660.264C722.626 664.043 715.872 675.709 715.308 678.357C718.099 677.021 725.382 662.25 726.253 658.733L726.469 657.884C726.513 657.697 726.557 657.51 726.6 657.324C728.288 660.866 716.641 681.275 712.933 684.075C711.322 685.291 711.985 683.576 711.297 686.386C713.912 686.863 714.07 684.012 715.918 685.406C714.367 686.647 712.279 688.357 710.657 686.772C710.457 683.036 721.401 663.531 723.702 659.351Z"/><path fill="#38138F" transform="matrix(0.0488281 0 0 0.0488281 0 -1.90735e-06)" d="M747.504 687.017C746.798 674.013 771.963 634.431 787.46 646.224C788.052 647.191 788.794 647.952 788.414 649.198C785.373 659.166 759.645 692.445 747.504 687.017Z"/><path fill="#1A0975" transform="matrix(0.0488281 0 0 0.0488281 0 -1.90735e-06)" d="M747.504 687.017C746.798 674.013 771.963 634.431 787.46 646.224C785.748 646.775 780.082 647.511 779.321 647.942C769.287 653.628 760.717 663.101 755.084 673.097C752.841 677.108 750.24 684.308 747.504 687.017Z"/><path fill="#F8F8FA" transform="matrix(0.0488281 0 0 0.0488281 0 -1.90735e-06)" d="M788.072 715.31C789.674 719.574 790.851 722.406 792.862 726.484C796.374 726.893 800.586 727.232 803.901 728.259C804.693 729.878 804.743 729.81 804.779 731.708C803.271 735.677 799.919 736.577 796.008 737.148C796.439 738.726 797.696 743.787 797.751 745.331C799.136 746.614 799.393 746.61 799.748 748.472L799.227 749.039C796.988 748.506 792.319 745.041 790.121 743.569C787.008 745.527 782.237 750.054 779.657 749.721C778.665 747.987 779.007 748.203 778.978 745.902C779.162 742.994 780.258 737.782 780.814 734.86C778.184 732.38 775.444 730.034 772.718 727.66C777.229 727.388 779.646 727.043 784.134 726.23C785.832 723.208 787.107 718.624 788.072 715.31Z"/><path fill="#1A0975" transform="matrix(0.0488281 0 0 0.0488281 0 -1.90735e-06)" d="M778.978 745.902C781.773 744.433 785.604 741.92 788.382 740.217C791.025 741.372 795.113 743.839 797.751 745.331C799.136 746.614 799.393 746.61 799.748 748.472L799.227 749.039C796.988 748.506 792.319 745.041 790.121 743.569C787.008 745.527 782.237 750.054 779.657 749.721C778.665 747.987 779.007 748.203 778.978 745.902Z"/><path fill="#1A0975" transform="matrix(0.0488281 0 0 0.0488281 0 -1.90735e-06)" d="M803.901 728.259C804.693 729.878 804.743 729.81 804.779 731.708C803.271 735.677 799.919 736.577 796.008 737.148C795.742 732.889 800.6 730.83 803.901 728.259Z"/><path fill="#F8F8FA" transform="matrix(0.0488281 0 0 0.0488281 0 -1.90735e-06)" d="M304.165 634.111C291.827 618.023 315.292 607.021 316.772 626.196L317.46 626.465C319.259 631.365 314.639 643.871 308.349 642.264C306.116 640.836 304.406 636.714 304.165 634.111Z"/><path fill="#1A0975" transform="matrix(0.0488281 0 0 0.0488281 0 -1.90735e-06)" d="M316.772 626.196L317.46 626.465C319.259 631.365 314.639 643.871 308.349 642.264C306.116 640.836 304.406 636.714 304.165 634.111C312.641 639.811 314.749 633.891 316.772 626.196Z"/><defs><linearGradient id="gradient_6" gradientUnits="userSpaceOnUse" x1="420.06757" y1="606.4364" x2="360.19058" y2="147.2088"><stop offset="0" stop-color="#DDCDF9"/><stop offset="1" stop-color="#FFFFFB"/></linearGradient></defs><path fill="url(#gradient_6)" transform="matrix(0.0488281 0 0 0.0488281 0 -1.90735e-06)" d="M127.718 397.725C135.478 369.857 145.851 346.12 159.396 320.719C247.482 155.537 442.089 75.5788 621.534 126.462C826.165 184.486 945.321 385.026 904.127 592.829C898.465 589.777 892.976 587.091 887.091 584.511C921.276 401.595 821.768 219.71 647.148 154.886C633.64 149.872 618.418 144.368 604.332 141.371C606.393 143.135 608.271 143.266 610.485 143.921C616.992 145.846 657.818 158.139 660.547 161.583L660.09 162.096C654.893 168.01 655.922 170.213 661.868 174.661L662.973 177.998C659.883 176.372 652.763 172.783 649.394 172.799L648.631 172.601C642.693 171.01 634.326 167.327 628.181 165.137C595.618 153.529 564.245 148.947 530.002 146.891C365.274 137.001 208.455 247.421 162.449 405.924C152.56 440.046 145.987 477.829 146.505 513.423L147.587 513.313C152.555 521.131 150.8 534.571 163.622 537.161C167.174 537.879 173.456 536.381 176.249 534.21C174.296 524.763 172.522 514.421 171.239 504.861C182.667 504.62 195.222 504.928 206.749 504.94L279.994 505.051C280.215 510.742 280.307 517.222 280.995 522.815C282.486 525.507 282.178 529.896 284.881 532.294C287.135 531.707 288.65 531.26 290.989 531.135C294.574 530.942 293.863 527.335 294.421 524.876C294.669 521.305 293.551 509.622 293.384 504.973C307.586 504.98 322.302 505.165 336.46 504.822C336.467 501.613 336.807 493.906 335.927 491.286C336.156 490.608 336.362 489.934 336.515 489.234C337.912 482.854 337.708 426.013 335.287 422.681C335.113 422.442 334.929 422.212 334.75 421.977L335.261 421.664L335.951 421.352C336.503 419.574 336.204 409.807 336.18 407.318C325.225 404.401 311.797 398.657 301.166 394.342C309.765 352.022 326.497 308.263 350.578 272.301C375.791 282.943 392.641 287.501 419.414 293.74C416.718 302.446 414.408 310.251 412.095 319.087C417.509 318.917 419.921 319.096 425.194 320.133L432.126 296.223C442.875 297.623 451.959 300.014 463.548 300.907C504.376 304.056 549.333 304.478 589.454 296.418C594.595 312.303 598.082 325.74 600.66 342.1L614.696 342.466C636.224 344.023 659.648 337.406 676.081 355.825C687.898 369.071 682.581 384.971 684.153 401.113C684.421 403.869 683.927 406.621 685.264 409.16C685.814 412.523 685.642 418.679 685.525 422.262L685.325 434.634C684.703 438.948 684.907 449.765 684.899 454.459L684.993 491.915C684.734 501.514 685.104 511.042 684.927 520.592C684.905 524.849 684.729 530.244 685.088 534.398C685.308 542.828 686.28 550.078 682.406 558.009C675.503 572.143 663.412 577.055 648.423 577.169C630.249 577.308 612.305 577.219 594.244 577.198L471.75 577.148L399.143 577.217C388.324 577.175 375.894 577.559 365.265 576.666C359.749 576.203 351.367 571.876 347.437 567.796C338.722 558.747 336.493 549.791 336.428 537.742L336.424 536.168C305.053 541.562 274.102 550.72 243.66 559.616C205.877 570.657 169.768 584.784 133.979 601.063C130.107 602.824 125.638 604.898 121.672 606.417C120.471 602.212 119.532 597.225 118.612 592.899C111.352 557.905 109.689 517.538 112.002 482.038C112.319 477.162 113.266 465.218 114.36 460.667C115.091 446.188 123.313 411.541 127.718 397.725Z"/><defs><linearGradient id="gradient_7" gradientUnits="userSpaceOnUse" x1="779.20679" y1="211.13126" x2="323.21231" y2="634.89972"><stop offset="0" stop-color="#111278"/><stop offset="1" stop-color="#511E9A"/></linearGradient></defs><path fill="url(#gradient_7)" transform="matrix(0.0488281 0 0 0.0488281 0 -1.90735e-06)" d="M127.718 397.725C135.478 369.857 145.851 346.12 159.396 320.719C247.482 155.537 442.089 75.5788 621.534 126.462C826.165 184.486 945.321 385.026 904.127 592.829C898.465 589.777 892.976 587.091 887.091 584.511C921.276 401.595 821.768 219.71 647.148 154.886C633.64 149.872 618.418 144.368 604.332 141.371C593.951 137.868 572.287 134.5 561.303 133.062C487.688 123.427 410.254 136.228 343.636 169.046C275.952 202.389 218.611 256.051 180.812 321.361C173.446 334.088 167.718 346.665 161.698 360.033C160.53 360.419 160.841 360.078 160.334 361.163C156.016 370.399 152.912 380.208 149.562 389.81C147.644 395.31 145.705 400.063 144.008 405.669C142.632 410.212 142.663 413.62 141.639 417.603L141.038 417.495C139.778 418.698 139.863 418.542 139.088 419.859C138.059 421.607 131.14 426.039 129.527 426.283C127.937 421.847 125.028 422.502 122.552 418.991C122.896 418.509 124.572 416.367 124.56 415.948C124.436 411.729 129.51 401.223 127.718 397.725Z"/><path fill="#7528B1" transform="matrix(0.0488281 0 0 0.0488281 0 -1.90735e-06)" d="M127.718 397.725C129.51 401.223 124.436 411.729 124.56 415.948C124.572 416.367 122.896 418.509 122.552 418.991C125.028 422.502 127.937 421.847 129.527 426.283C131.14 426.039 138.059 421.607 139.088 419.859C139.863 418.542 139.778 418.698 141.038 417.495L141.639 417.603C140.574 423.116 136.459 435.887 137.308 440.151C129.364 492.142 128.626 532.026 137.217 584.395C133.801 585.811 121.093 590.913 118.612 592.899C111.352 557.905 109.689 517.538 112.002 482.038C112.319 477.162 113.266 465.218 114.36 460.667C115.091 446.188 123.313 411.541 127.718 397.725Z"/><path fill="#38138F" transform="matrix(0.0488281 0 0 0.0488281 0 -1.90735e-06)" d="M127.718 397.725C129.51 401.223 124.436 411.729 124.56 415.948C124.572 416.367 122.896 418.509 122.552 418.991C122.631 420.407 119.99 433.295 119.331 435.572C117.8 440.856 116.625 457.384 114.36 460.667C115.091 446.188 123.313 411.541 127.718 397.725Z"/><path fill="#38138F" transform="matrix(0.0488281 0 0 0.0488281 0 -1.90735e-06)" d="M146.505 513.423L147.587 513.313C152.555 521.131 150.8 534.571 163.622 537.161C167.174 537.879 173.456 536.381 176.249 534.21C177.704 543.151 181.198 556.858 183.91 565.422C173.011 569.27 162.804 573.267 152.175 577.797C148.963 557.104 146.29 534.305 146.505 513.423Z"/><path fill="#38138F" transform="matrix(0.0488281 0 0 0.0488281 0 -1.90735e-06)" d="M141.639 417.603C142.663 413.62 142.632 410.212 144.008 405.669C145.705 400.063 147.644 395.31 149.562 389.81C152.912 380.208 156.016 370.399 160.334 361.163C160.841 360.078 160.53 360.419 161.698 360.033C159.058 367.216 155.86 374.331 153.348 381.515C146.61 400.782 141.626 420.21 137.308 440.151C136.459 435.887 140.574 423.116 141.639 417.603Z"/><path fill="#38138F" transform="matrix(0.0488281 0 0 0.0488281 0 -1.90735e-06)" d="M280.995 522.815C282.486 525.507 282.178 529.896 284.881 532.294C287.135 531.707 288.65 531.26 290.989 531.135C294.574 530.942 293.863 527.335 294.421 524.876L295.085 530.955C290.542 531.917 286.105 532.897 281.583 533.959L280.995 522.815Z"/><path fill="#38138F" transform="matrix(0.0488281 0 0 0.0488281 0 -1.90735e-06)" d="M476.226 313.593C496.928 312.797 518.266 314.043 539.06 313.672C552.894 313.426 553.948 318.792 561.309 328.396C567.015 335.841 573.83 348.102 580.257 354.411C585.626 355.07 593.704 354.874 599.258 354.871L631.433 354.626C642.619 354.452 656.114 352.982 665.2 361.396C671.258 367.006 672.852 373.439 672.893 381.421C673.085 418.624 672.9 455.84 672.908 493.05L672.939 528.476C672.949 534.476 673.307 543.149 672.418 548.91C671.21 556.741 662.25 564.003 654.238 564.717C639.766 566.009 624.577 565.494 609.913 565.493L521.75 565.471L414.927 565.437L388.197 565.486C376.129 565.512 365.117 566.912 355.781 557.579C346.614 548.413 348.401 536.989 348.508 525.145L348.62 495.249L348.898 378.24C348.964 372.807 348.904 370.986 351.536 366.099C357.782 354.504 367.929 355.206 379.282 355.48C379.103 348.778 378.205 341.277 383.263 336.054C388.379 330.771 397.454 331.45 404.455 331.488C412.453 331.533 423.473 330.361 429.312 336.557C434.177 341.721 433.383 348.889 433.269 355.435L441.92 355.609C447.265 347.603 452.626 339.536 458.11 331.629C463.108 324.423 467.234 316.009 476.226 313.593Z"/><path fill="#F8F8FA" transform="matrix(0.0488281 0 0 0.0488281 0 -1.90735e-06)" d="M477.918 325.104C484.013 324.521 494.282 324.973 500.813 324.996L543.391 325.019C553.076 332.678 566.722 359.785 574.907 364.36C581.706 368.161 621.445 365.816 631.815 366.319C637.877 366.367 644.118 365.64 650.111 366.638C654.652 367.394 660.18 370.991 660.765 376.012C662.176 388.123 661.463 401.314 661.331 413.641L574.712 413.632C564.4 400.517 553.979 393.569 538.838 386.917C511.045 376.501 478.868 382.577 456.487 401.737C451.833 405.721 447.77 411.283 443.146 414.855C415.872 414.151 387.849 414.286 360.576 414.801C360.495 403.221 360.362 391.56 360.428 379.976C360.461 374.268 361.678 370.512 366.355 367.15C371.661 366.312 380.392 366.745 386.018 366.811L421.708 366.959C427.278 366.969 445.935 368.076 449.66 363.763C457.662 354.498 468.812 332.216 477.918 325.104Z"/><path fill="#38138F" transform="matrix(0.0488281 0 0 0.0488281 0 -1.90735e-06)" d="M597.457 374.053C606.358 373.647 630.18 373.34 638.362 374.079C641.473 375.906 642.167 376.846 644.296 379.802C643.901 389.29 647.121 400.246 637.578 405.344C625.5 406.285 610.62 405.597 598.462 405.132C590.745 404.837 590.058 396.12 590.572 390.451C591.335 382.036 588.62 378.374 597.457 374.053Z"/><path fill="#F8F8FA" transform="matrix(0.0488281 0 0 0.0488281 0 -1.90735e-06)" d="M598.652 382.003L635.616 382.146C635.698 387.036 635.611 392.092 635.592 396.996L598.649 397.031L598.652 382.003Z"/><path fill="#38138F" transform="matrix(0.0488281 0 0 0.0488281 0 -1.90735e-06)" d="M505.464 332.705C516.834 329.983 528.255 337.007 530.955 348.383C533.656 359.758 526.61 371.166 515.229 373.844C503.879 376.516 492.509 369.493 489.816 358.148C487.123 346.803 494.124 335.42 505.464 332.705Z"/><path fill="#F8F8FA" transform="matrix(0.0488281 0 0 0.0488281 0 -1.90735e-06)" d="M508.22 341.128C514.716 340.021 520.892 344.352 522.064 350.838C523.235 357.323 518.965 363.541 512.491 364.777C505.927 366.03 499.601 361.686 498.413 355.109C497.225 348.532 501.632 342.25 508.22 341.128Z"/><path fill="#F8F8FA" transform="matrix(0.0488281 0 0 0.0488281 0 -1.90735e-06)" d="M507.652 391.679C545.708 391.154 576.999 421.552 577.576 459.607C578.154 497.663 547.799 528.995 509.744 529.625C471.615 530.256 440.209 499.83 439.63 461.7C439.052 423.57 469.521 392.205 507.652 391.679Z"/><path fill="#38138F" transform="matrix(0.0488281 0 0 0.0488281 0 -1.90735e-06)" d="M502.55 402.587C534.819 399.224 563.646 422.803 566.748 455.098C569.85 487.393 546.039 516.028 513.72 518.869C481.768 521.678 453.529 498.196 450.462 466.268C447.395 434.34 470.648 405.912 502.55 402.587Z"/><path fill="#F8F8FA" transform="matrix(0.0488281 0 0 0.0488281 0 -1.90735e-06)" d="M504.25 411.818C531.157 409.306 554.998 429.1 557.477 456.01C559.957 482.919 540.134 506.737 513.221 509.183C486.354 511.625 462.587 491.844 460.112 464.981C457.637 438.117 477.389 414.326 504.25 411.818Z"/><path fill="#38138F" transform="matrix(0.0488281 0 0 0.0488281 0 -1.90735e-06)" d="M490.737 427.054C494.64 426.756 499.683 427.092 503.679 427.245C506.32 429.386 509.832 430.37 513.649 433.38C515.076 438.367 517.781 442.8 519.594 447.989C518.398 451.242 515.956 459.234 514.368 461.62C509.744 467.679 501.557 468.872 497.403 475.633C493.081 482.668 502.581 490.037 508.241 493.393C503.401 486.446 502.546 480.868 508.816 473.977C512.142 470.323 519.327 459.952 524.058 458.938C525.65 458.596 537.71 462.021 538.645 462.868L538.614 463.951C539.249 469.078 540.947 470.641 544.146 474.6C538.576 491.645 516.786 503.208 499.307 498.252C465.099 488.554 458.808 444.309 490.737 427.054Z"/><path fill="#38138F" transform="matrix(0.0488281 0 0 0.0488281 0 -1.90735e-06)" d="M520.612 422.821C529.424 424.873 537.247 431.471 542.037 438.988C538.766 444.801 539.007 445.987 538.257 452.757C539.302 454.343 540.806 456.223 540.034 458.144L538.888 458.035C536.065 457.199 533.177 456.248 530.361 455.358C528.298 445.271 528.151 448.226 522.851 444.526C522.825 444.508 515.613 430.091 514.552 428.233L520.612 422.821Z"/><path fill="#38138F" transform="matrix(0.0488281 0 0 0.0488281 0 -1.90735e-06)" d="M544.085 445.836C547.085 448.679 547.935 462.538 546.336 466.319C543.89 462.328 542.041 450.351 544.085 445.836Z"/><path fill="#38138F" transform="matrix(0.0488281 0 0 0.0488281 0 -1.90735e-06)" d="M502.146 421.308C504.99 421.028 509.869 419.927 511.352 422.88C510.718 424.574 511.236 423.912 509.74 424.936L508.381 424.673C505.199 423.471 500.842 423.313 498.912 422.24C500.055 421.227 500.294 421.531 502.146 421.308Z"/><path fill="#38138F" transform="matrix(0.0488281 0 0 0.0488281 0 -1.90735e-06)" d="M523.654 448.616L525.104 449.39C526.854 452.407 525.507 453.925 522.883 455.68L521.702 455.882L521.184 455.447C521.326 453.314 522.744 450.665 523.654 448.616Z"/><path fill="#F8F8FA" transform="matrix(0.0488281 0 0 0.0488281 0 -1.90735e-06)" d="M492.903 547.258C547.956 546.42 606.032 546.627 661.092 547.189C659.201 550.504 657.296 553.261 653.149 553.397C642.424 553.747 631.498 553.52 620.761 553.494L553.25 553.487L426.291 553.355L398.809 553.146C395.026 553.124 388.051 554.364 385.811 551.295C385.923 549.441 385.591 550.202 386.654 548.864C391.099 547.391 406.094 548.102 412.082 548.012L492.903 547.258Z"/><path fill="#F8F8FA" transform="matrix(0.0488281 0 0 0.0488281 0 -1.90735e-06)" d="M594.383 424.717C616.218 424.303 639.218 424.287 661.061 424.511C661.107 445.639 659.997 468.34 659.511 489.628L658.544 522.029C658.414 525.283 658.324 533.141 657.556 535.974L657.119 535.877L656.819 533.875C655.592 504.016 653.17 473.76 652.175 443.839C652.059 440.345 648.138 433.362 644.229 432.52C624.899 428.352 603.789 429.62 584.483 425.309L594.383 424.717Z"/><path fill="#F8F8FA" transform="matrix(0.0488281 0 0 0.0488281 0 -1.90735e-06)" d="M361.1 440.782C362.967 442.268 364.554 448.059 365.081 450.479C367.397 461.107 367.393 472.445 367.842 483.288C368.495 499.099 369.007 514.863 369.592 530.679C369.786 535.945 370.9 541.861 371.01 547.183C371.026 547.963 369.378 550.482 368.882 551.268L367.728 552.097C364.465 551.722 360.623 545.775 360.44 542.659C359.755 531.022 359.989 518.805 360.17 507.151C360.511 485.086 359.96 462.791 361.1 440.782Z"/><path fill="#F8F8FA" transform="matrix(0.0488281 0 0 0.0488281 0 -1.90735e-06)" d="M376.627 424.718C385.759 424.324 396.027 424.473 405.234 424.364C415.585 424.241 427.159 424.047 437.407 424.726C436.492 426.575 435.355 428.445 434.315 430.237L423.032 430.892C403.368 431.107 378.195 430.038 358.842 426.169C364.285 425.013 370.985 424.944 376.627 424.718Z"/><path fill="#F8F8FA" transform="matrix(0.0488281 0 0 0.0488281 0 -1.90735e-06)" d="M399.739 342.737C402.824 342.749 406.411 342.645 409.485 342.466C421.133 341.786 421.923 344.869 421.765 355.445L414.25 355.442L391.359 355.466C391.211 345.8 389.022 342.826 399.739 342.737Z"/><path fill="#F8F8FA" transform="matrix(0.0488281 0 0 0.0488281 0 -1.90735e-06)" d="M400.633 462.776C405.604 460.987 411.085 463.563 412.879 468.533C414.674 473.502 412.103 478.986 407.135 480.786C402.16 482.588 396.666 480.013 394.869 475.035C393.072 470.058 395.654 464.567 400.633 462.776Z"/><path fill="#F8F8FA" transform="matrix(0.0488281 0 0 0.0488281 0 -1.90735e-06)" d="M617.4 462.308C622.617 461.994 627.116 465.938 627.486 471.152C627.857 476.365 623.961 480.906 618.752 481.332C615.332 481.612 612.025 480.033 610.093 477.197C608.161 474.362 607.901 470.706 609.413 467.626C610.925 464.546 613.975 462.515 617.4 462.308Z"/><path fill="#C4AFF9" transform="matrix(0.0488281 0 0 0.0488281 0 -1.90735e-06)" d="M561.649 308.863C566.815 312.241 584.579 336.581 588.464 342.708C584.295 341.5 571.252 319.473 566.9 315.385C565.795 314.347 562.512 310.196 561.649 308.863Z"/><defs><linearGradient id="gradient_8" gradientUnits="userSpaceOnUse" x1="803.61163" y1="618.46826" x2="740.69666" y2="150.84473"><stop offset="0" stop-color="#BB9AF9"/><stop offset="1" stop-color="#E9E7F8"/></linearGradient></defs><path fill="url(#gradient_8)" transform="matrix(0.0488281 0 0 0.0488281 0 -1.90735e-06)" d="M604.332 141.371C618.418 144.368 633.64 149.872 647.148 154.886C821.768 219.71 921.276 401.595 887.091 584.511C892.976 587.091 898.465 589.777 904.127 592.829L900.744 607.697C885.238 598.871 868.23 591.4 851.998 584.251C809.636 565.594 765.32 551.825 720.17 541.785C712.446 540.067 692.07 534.849 685.088 534.398C684.729 530.244 684.905 524.849 684.927 520.592C691.134 519.377 720.391 528.208 730.578 529.383C735.076 530.318 739.119 531.434 743.536 532.644C744.597 524.408 744.617 514.254 744.768 505.95C780.241 507.129 817.011 506.275 852.591 506.202C848.748 526.948 846.318 542.887 837.691 562.909C849.481 567.785 858.781 571.239 870.726 576.683C871.854 569.022 873.26 561.785 874.098 554.002C879.959 499.985 874.805 444.94 857.765 393.291C827.301 300.952 757.335 225.791 671.037 182.411C664.059 178.904 656.435 176.274 649.394 172.799C652.763 172.783 659.883 176.372 662.973 177.998L661.868 174.661C655.922 170.213 654.893 168.01 660.09 162.096L660.547 161.583C657.818 158.139 616.992 145.846 610.485 143.921C608.271 143.266 606.393 143.135 604.332 141.371Z"/><path fill="#DBD1F9" transform="matrix(0.0488281 0 0 0.0488281 0 -1.90735e-06)" d="M603.041 293.511C618.136 290.644 631.509 287.04 646.17 282.191C655.052 279.252 664.086 275.632 672.896 272.815C697.894 307.971 713.139 352.954 722.223 394.693C709.185 400.463 697.397 404.049 685.264 409.16C683.927 406.621 684.421 403.869 684.153 401.113C682.581 384.971 687.898 369.071 676.081 355.825C659.648 337.406 636.224 344.023 614.696 342.466C611.923 328.63 608.996 315.154 605.064 301.589C604.311 298.991 603.565 296.152 603.041 293.511Z"/><path fill="#C4AFF9" transform="matrix(0.0488281 0 0 0.0488281 0 -1.90735e-06)" d="M686.183 422.222C698.155 418.903 713.14 413.61 724.332 408.17C729.378 433.132 731.255 467.06 731.404 492.769L705.123 492.015C701.409 491.873 688.23 491.237 685.381 491.813L684.993 491.915L684.899 454.459C684.907 449.765 684.703 438.948 685.325 434.634L685.525 422.262L686.183 422.222Z"/><path fill="#C4AFF9" transform="matrix(0.0488281 0 0 0.0488281 0 -1.90735e-06)" d="M685.525 422.262L686.183 422.222C686.481 425.876 686.805 431.65 686.191 435.201L685.828 435.429L685.325 434.634L685.525 422.262Z"/><path fill="#DBD1F9" transform="matrix(0.0488281 0 0 0.0488281 0 -1.90735e-06)" d="M298.76 407.736C308.465 411.877 318.419 415.411 328.37 418.912C330.711 419.735 333.038 420.555 335.261 421.664L334.75 421.977C334.929 422.212 335.113 422.442 335.287 422.681C337.708 426.013 337.912 482.854 336.515 489.234C336.362 489.934 336.156 490.608 335.927 491.286C330.37 492.634 300.726 491.716 292.903 491.784C292.584 461.884 294.838 437.206 298.76 407.736Z"/><path fill="#C4AFF9" transform="matrix(0.0488281 0 0 0.0488281 0 -1.90735e-06)" d="M684.993 491.915L685.381 491.813L685.329 504.568L731.465 506.005L730.578 529.383C720.391 528.208 691.134 519.377 684.927 520.592C685.104 511.042 684.734 501.514 684.993 491.915Z"/><path fill="#C4AFF9" transform="matrix(0.0488281 0 0 0.0488281 0 -1.90735e-06)" d="M816.888 352.86L817.633 353.176C819.854 356.697 821.495 360.628 823.373 364.361C835.84 389.147 843.841 416.056 849.967 443.031C852.287 453.248 854.184 463.722 855.042 474.157C855.575 480.647 854.88 487.034 854.142 493.469C828.607 492.95 801.892 493.42 776.25 493.45C765.705 493.473 755.221 493.297 744.68 493.128C744.754 461.442 742.794 433.142 736.836 402.083C766.447 388.189 791.552 373.451 816.888 352.86Z"/><defs><linearGradient id="gradient_9" gradientUnits="userSpaceOnUse" x1="257.80429" y1="501.90976" x2="181.73903" y2="367.27145"><stop offset="0" stop-color="#E3D2FB"/><stop offset="1" stop-color="#F9F7FB"/></linearGradient></defs><path fill="url(#gradient_9)" transform="matrix(0.0488281 0 0 0.0488281 0 -1.90735e-06)" d="M206.47 351.707C208.594 352.796 212.004 355.64 213.904 357.326C235.571 376.553 260.364 389.31 285.988 402.544C280.565 429.659 279.497 464.218 279.477 491.825C269.341 491.572 258.673 491.702 248.496 491.667L167.854 491.52C169.561 443.764 185.753 394.341 206.47 351.707Z"/><defs><linearGradient id="gradient_10" gradientUnits="userSpaceOnUse" x1="527.04431" y1="310.75385" x2="465.3454" y2="185.24855"><stop offset="0" stop-color="#F1EAFC"/><stop offset="1" stop-color="#FAF9FB"/></linearGradient></defs><path fill="url(#gradient_10)" transform="matrix(0.0488281 0 0 0.0488281 0 -1.90735e-06)" d="M504.512 165.159L520.532 165.366C527.351 173.356 535.311 182.569 541.271 191.245C559.506 217.794 576.038 252.999 585.462 283.801C562.196 287.956 542.355 289.263 518.625 290.051C488.484 290.783 465.99 288.639 436.508 284.015C449.499 248.502 476.449 191.45 504.512 165.159Z"/><path fill="#DBD1F9" transform="matrix(0.0488281 0 0 0.0488281 0 -1.90735e-06)" d="M726.946 244.903C729.356 245.433 737.401 252.743 739.667 254.666C768.13 278.83 792.585 308.148 810.991 340.637C791.187 356.303 780.226 363.995 758.199 376.731C750.315 381.004 742.416 385.191 734.345 389.101C729.797 359.691 714.141 319.264 700.461 292.774C696.048 284.229 690.362 275.512 685.625 267.003C700.78 260.049 713.013 254.007 726.946 244.903Z"/><path fill="#F8F8FA" transform="matrix(0.0488281 0 0 0.0488281 0 -1.90735e-06)" d="M294.104 244.873C294.599 244.934 333.36 264.999 337.922 267.109C333.046 275.29 327.409 283.558 323.087 292.005C307.383 322.688 295.55 355.112 288.655 388.866C281.646 385.433 275.117 382.026 268.214 378.355C249.268 368.832 229.565 353.706 213.618 339.798C232.387 305.124 262.984 269.081 294.104 244.873Z"/><path fill="#F8F8FA" transform="matrix(0.0488281 0 0 0.0488281 0 -1.90735e-06)" d="M482.456 168.07L482.777 168.323C482.448 169.908 473.693 180.744 472.005 183.219C451.16 213.801 436.39 247.606 423.254 281.896C405.273 276.726 390.803 273.468 372.639 267.137L357.682 261.916C367.246 250.007 375.394 239.677 386.138 228.746C413.153 201.259 445.82 180.102 482.456 168.07Z"/><path fill="#F8F8FA" transform="matrix(0.0488281 0 0 0.0488281 0 -1.90735e-06)" d="M540.466 167.869C549.264 170.48 558.271 175.045 566.552 178.957C599.124 194.341 627.785 216.437 651.115 243.858C655.263 248.732 661.892 255.863 664.863 261.465C660.417 263.278 655.406 264.989 650.861 266.645C632.405 272.71 617.906 276.7 599.115 281.418C586.023 241.626 567.111 200.471 540.466 167.869Z"/><path fill="#F8F8FA" transform="matrix(0.0488281 0 0 0.0488281 0 -1.90735e-06)" d="M430.011 176.07L430.932 176.077C430.904 176.858 425.746 179.841 424.76 180.471C393.326 200.552 367.745 225.769 345.889 256.024C336.792 251.91 329.031 248.201 320.253 243.454C314.899 240.626 310.495 238.24 305.347 235.051C346.355 206.387 381.6 189.878 430.011 176.07Z"/><path fill="#F8F8FA" transform="matrix(0.0488281 0 0 0.0488281 0 -1.90735e-06)" d="M587.339 174.473C592.126 174.885 606.062 180.244 611.132 181.906C649.898 194.609 684.249 211.003 717.185 235.501C713.038 238.361 708.572 240.775 704.182 243.255C694.445 248.312 687.568 251.793 677.366 255.93C652.452 220.323 624.788 196.078 587.339 174.473Z"/></svg>