<?xml version="1.0" encoding="utf-8" ?><svg xmlns="http://www.w3.org/2000/svg" xmlns:xlink="http://www.w3.org/1999/xlink" width="300" height="300" viewBox="0 0 100 100"><path fill="#582C8D" transform="matrix(0.0976563 0 0 0.0976563 -9.53674e-07 0)" d="M517.792 88.757C537.232 89.0397 557.717 91.9557 576.679 96.2692C653.431 113.846 720.168 160.956 762.431 227.391C798.567 285.042 820.199 369.804 803.063 436.34C780.495 523.969 725.394 614.828 678.208 691.466C639.504 754.339 599.018 816.097 556.8 876.666L532.707 911.337C528.752 917.027 524.908 922.953 520.637 928.389C517.171 932.8 513.826 934.467 508.441 932.949C502.661 929.245 487.372 905.66 482.787 899.017C467.261 876.849 451.991 854.503 436.981 831.983C422.137 810.117 407.451 788.145 392.922 766.068C369.009 729.382 345.896 692.181 323.6 654.49C290.945 599.876 259.987 544.605 236.817 485.187C218.547 438.333 211.886 402.696 218.188 352.875C226.547 285.769 256.753 223.277 304.146 175.037C361.828 116.299 436.384 89.431 517.792 88.757Z"/><defs><linearGradient id="gradient_0" gradientUnits="userSpaceOnUse" x1="709.10333" y1="602.78625" x2="245.51651" y2="325.09195"><stop offset="0" stop-color="#9F78B3"/><stop offset="1" stop-color="#C5A5CB"/></linearGradient></defs><path fill="url(#gradient_0)" transform="matrix(0.0976563 0 0 0.0976563 -9.53674e-07 0)" d="M359.341 678.196C352.257 667.967 346.998 657.459 340.523 647.093C324.373 621.236 309.056 593.556 295.039 566.465C273.046 523.959 245.321 468.485 236.865 421.433C225.347 357.333 249.024 278.824 285.515 226.085C326.707 165.52 390.687 124.234 462.844 111.656C509.153 103.21 556.857 106.851 601.347 122.228C612.205 125.882 626.201 131.13 635.555 137.615C644.992 141.273 657.702 149.215 666.214 154.897C710.553 184.539 745.472 226.263 766.838 275.13C787.022 320.767 796.304 378.62 786.883 428.119C784.085 442.819 774.835 467.775 769.48 481.747C747.106 540.129 715.903 593.97 683.755 647.366C650.894 702.24 616.556 756.216 580.777 809.234C558.324 842.593 534.589 875.414 512.329 908.791C503.259 896.787 494.415 883.446 485.785 871.025C465.635 841.872 445.8 812.502 426.284 782.921C411.303 760.284 396.549 737.497 382.025 714.564C375.324 704.016 365.347 688.996 359.341 678.196Z"/><defs><linearGradient id="gradient_1" gradientUnits="userSpaceOnUse" x1="543.02051" y1="441.09082" x2="273.29672" y2="243.53574"><stop offset="0" stop-color="#C2A1C6"/><stop offset="1" stop-color="#D7BED6"/></linearGradient></defs><path fill="url(#gradient_1)" transform="matrix(0.0976563 0 0 0.0976563 -9.53674e-07 0)" d="M359.341 678.196C352.257 667.967 346.998 657.459 340.523 647.093C324.373 621.236 309.056 593.556 295.039 566.465C273.046 523.959 245.321 468.485 236.865 421.433C225.347 357.333 249.024 278.824 285.515 226.085C326.707 165.52 390.687 124.234 462.844 111.656C509.153 103.21 556.857 106.851 601.347 122.228C612.205 125.882 626.201 131.13 635.555 137.615C637.119 140.682 640.491 144.644 642.736 147.452C590.379 121.292 535.964 111.003 477.732 119.296C465.356 121.058 450.825 123.909 439.063 127.884C371.145 150.839 310.271 206.479 278.983 270.758C259.281 311.234 245.064 361.651 247.755 407.123C248.875 426.052 254.761 450.3 260.967 468.105C279.153 520.277 307.18 570.539 334.623 618.423C345.916 638.127 357.932 660.915 371.12 679.15C366.774 679.343 363.216 679.988 359.341 678.196Z"/><path fill="#582C8D" transform="matrix(0.0976563 0 0 0.0976563 -9.53674e-07 0)" d="M508.199 137.724C509.132 137.68 510.066 137.656 511.001 137.654C575.678 137.732 637.661 163.57 683.242 209.456C732.797 259.463 759.679 324.108 758.554 394.376C758.366 406.123 758.105 414.961 755.408 426.719C747.067 463.077 731.527 496.438 714.975 529.579C692.272 575.038 666.394 618.421 639.62 661.561C616.414 699.483 592.502 736.968 567.896 773.997C552.713 796.925 536.815 819.337 521.859 842.406C519.629 845.846 518.183 848.073 515.28 850.955C513.614 851.974 513.684 851.914 511.736 852.237C510.85 852.044 509.864 851.826 509.256 851.123C503.811 844.828 497.994 835.481 493.324 828.657L462.293 783.535C441.651 753.554 421.371 723.325 401.456 692.856C389.392 674.695 377.618 656.343 366.137 637.808C346.077 604.568 327.393 570.517 310.132 535.741C297.008 509.514 282.98 481.562 274.425 453.473C269.215 436.814 266.25 419.534 265.61 402.092C262.921 333.423 287.513 266.48 334.017 215.883C379.785 166.522 441.347 140.273 508.199 137.724Z"/><path fill="#B99CC8" transform="matrix(0.0976563 0 0 0.0976563 -9.53674e-07 0)" d="M404.205 677.083C371.817 627.449 342.445 575.912 316.248 522.75C286.241 461.892 270.317 425.448 279.378 356.552C288.182 292.509 322.047 234.579 373.532 195.486C421.567 158.895 482.065 142.662 541.965 150.29C598.37 157.905 657.623 190.58 692.204 235.893C698.307 242.194 705.625 252.788 710.345 260.187C735.694 300.171 748.805 346.692 748.064 394.028C747.796 412.037 745.065 427.864 739.525 444.933C724.919 489.933 700.617 535.184 677.292 576.458C648.957 626.632 619.016 675.882 587.515 724.132L535.106 802.79C527.504 814.058 519.657 825.038 512.24 836.435C490.972 806.706 469.995 774.283 449.121 744.055C435.536 724.382 415.896 697.091 404.205 677.083Z"/><path fill="#A37DB6" transform="matrix(0.0976563 0 0 0.0976563 -9.53674e-07 0)" d="M692.204 235.893C698.307 242.194 705.625 252.788 710.345 260.187C735.694 300.171 748.805 346.692 748.064 394.028C747.796 412.037 745.065 427.864 739.525 444.933C724.919 489.933 700.617 535.184 677.292 576.458C648.957 626.632 619.016 675.882 587.515 724.132L535.106 802.79C527.504 814.058 519.657 825.038 512.24 836.435C490.972 806.706 469.995 774.283 449.121 744.055C435.536 724.382 415.896 697.091 404.205 677.083C407.717 676.076 411.488 675.264 415.098 674.572C595.706 639.955 736.551 437.59 696.222 256.103C695.064 250.894 691.657 240.887 692.204 235.893Z"/><path fill="#FEFEFE" transform="matrix(0.0976563 0 0 0.0976563 -9.53674e-07 0)" d="M511.244 661.315C513.272 663.119 516.488 682.668 517.271 686.787C526.82 688.453 536.387 690.017 545.969 691.476C535.494 694.118 527.422 695.578 516.714 697.203C515.809 706.127 513.643 715.617 512.267 724.676L511.78 724.755C511.052 723.822 507.795 700.406 507.304 697.203C497.822 695.475 488.452 694.149 479.153 691.453C488.392 690.169 497.615 688.835 506.705 686.707C508.402 678.277 509.915 669.811 511.244 661.315Z"/><path fill="#FEFEFE" transform="matrix(0.0976563 0 0 0.0976563 -9.53674e-07 0)" d="M640.606 540.345C642.583 543.687 644.421 557.392 645.249 562.233C652.397 562.854 659.8 564.156 666.886 565.33C659.518 568.345 652.578 569.526 644.816 570.693C644.404 574.433 642.439 588.588 640.655 591.196L640.064 590.802L639.617 587.614C638.994 582.017 637.662 575.602 636.638 569.999C627.236 568.486 617.774 567.378 608.277 566.678L636.654 561.927C637.858 554.881 639.026 547.265 640.606 540.345Z"/><path fill="#582C8D" transform="matrix(0.0976563 0 0 0.0976563 -9.53674e-07 0)" d="M500.01 235.215C578.688 228.683 647.738 287.23 654.16 365.917C660.582 444.604 601.94 513.573 523.244 519.886C444.703 526.186 375.898 467.684 369.489 389.151C363.079 310.618 421.486 241.733 500.01 235.215Z"/><path fill="#D9D0DC" transform="matrix(0.0976563 0 0 0.0976563 -9.53674e-07 0)" d="M409.916 447.605C376.406 398.91 381.982 333.32 423.231 290.98C464.481 248.641 529.903 241.357 579.456 273.586C588.625 279.55 596.965 286.703 604.256 294.858C634.994 329.239 644.082 377.854 627.838 421.017C611.594 464.181 572.711 494.742 526.932 500.328C481.152 505.913 436.061 485.597 409.916 447.605Z"/><path fill="#B99CC8" transform="matrix(0.0976563 0 0 0.0976563 -9.53674e-07 0)" d="M604.256 294.858C634.994 329.239 644.082 377.854 627.838 421.017C611.594 464.181 572.711 494.742 526.932 500.328C481.152 505.913 436.061 485.597 409.916 447.605C410.561 444.906 407.847 438.966 406.74 436.053C409.006 435.776 417.079 443.224 419.563 445.093C473.014 485.325 547.935 482.206 588.715 425.692C611.445 394.193 617.473 361.903 611.217 323.643C609.586 313.672 605.558 304.203 604.256 294.858Z"/><path fill="#FEFEFE" transform="matrix(0.0976563 0 0 0.0976563 -9.53674e-07 0)" d="M409.916 447.605C376.406 398.91 381.982 333.32 423.231 290.98C464.481 248.641 529.903 241.357 579.456 273.586C576.875 274.355 564.85 268.788 561.267 267.971C558.744 267.395 555.579 266.172 552.836 265.837C497.407 253.662 441.687 279.69 414.352 329.427C398.582 358.123 394.547 394.679 403.168 426.578C403.764 428.783 405.672 434.017 406.74 436.053C407.847 438.966 410.561 444.906 409.916 447.605Z"/><path fill="#FEFEFE" transform="matrix(0.0976563 0 0 0.0976563 -9.53674e-07 0)" d="M502.764 171.68C506.599 171.123 513.491 170.579 513.939 176.032C512.653 178.117 510.265 178.594 507.962 178.828C500.497 179.587 493.111 180.022 485.704 181.332C449.187 187.56 415.051 203.601 386.949 227.737C348.418 260.622 317.395 312.022 313.412 363.143C312.986 365.406 313.036 365.872 311.782 367.708C309.955 368.762 310.894 368.588 308.891 368.368C303.373 364.44 307.523 351.294 308.781 345.403C315.565 312.137 329.996 280.906 350.933 254.179C389.858 204.324 440.853 179.239 502.764 171.68Z"/><path fill="#FEFEFE" transform="matrix(0.0976563 0 0 0.0976563 -9.53674e-07 0)" d="M617.199 185.889C618.405 187.217 621.241 203.724 621.783 206.707C629.439 208.41 636.828 209.665 644.493 211.676C620.241 213.95 620.952 214.558 617.291 237.733L616.647 237.741C615.883 230.934 614.101 222.545 612.78 215.737C605.266 213.669 598.608 212.231 590.795 211.736C597.629 209.787 605.544 208.465 612.747 206.582C614.136 199.698 615.457 192.68 617.199 185.889Z"/><path fill="#FEFEFE" transform="matrix(0.0976563 0 0 0.0976563 -9.53674e-07 0)" d="M406.285 571.92C407.873 573.979 409.712 587.955 410.206 591.211C416.823 592.825 425.334 593.989 432.199 595.095C425.836 595.786 416.794 597.695 410.236 598.846C409.705 603.978 408.31 614.986 406.329 619.276C404.995 614.319 403.66 604.577 402.775 599.185C395.431 598.329 386.687 596.422 379.307 594.977C387.155 593.729 394.993 592.408 402.817 591.014C403.626 585.066 404.816 577.729 406.285 571.92Z"/><path fill="#FEFEFE" transform="matrix(0.0976563 0 0 0.0976563 -9.53674e-07 0)" d="M307.298 390.428C309.015 392.467 306.519 396.51 312.413 402.64C316.675 403.697 321.963 404.31 326.38 404.942C320.38 405.542 316.527 405.605 311.226 408.784C309.214 411.919 308.813 413.441 307.906 416.89C307.724 417.884 307.953 417.465 307.228 418.151C305.608 415.199 306.335 412.89 304.454 410.101C301.878 406.283 295.941 405.979 291.637 405.321C303.692 402.657 304.216 402.456 307.298 390.428Z"/></svg>