<svg width="51" height="47" viewBox="0 0 51 47" fill="currentColor" xmlns="http://www.w3.org/2000/svg">
<path d="M20.6309 3.45508C22.8813 -0.46312 28.1142 -0.496024 30.3672 3.42383C36.5001 14.0992 42.6269 24.78 48.7559 35.459C49.0853 36.0334 49.4443 36.6304 49.7705 37.2314C51.8316 41.0251 49.2335 45.5082 44.918 45.5166C38.6321 45.5302 32.3467 45.521 26.0625 45.5205V45.5244H25.5625C19.1111 45.5244 12.6599 45.5263 6.20801 45.5225C3.67285 45.5209 1.5917 44.0824 0.807617 41.7129L0.725586 41.4473C0.34652 40.119 0.423417 38.7549 1.12305 37.4912L2.17676 35.6045C3.23782 33.7219 4.31768 31.8511 5.3916 29.9814C10.4688 21.1373 15.5513 12.2976 20.6309 3.45508ZM25.501 3.30957C24.593 3.31337 23.6466 3.81655 23.0273 4.89648C18.4602 12.8607 13.8889 20.8227 9.31934 28.7842C7.47639 31.9944 5.63317 35.2053 3.78223 38.4111V38.4121C3.35727 39.1461 3.21511 39.8762 3.41699 40.6592L3.48926 40.9004C3.67798 41.4442 4.00292 41.8679 4.43457 42.1689C4.93205 42.5158 5.60073 42.7197 6.4248 42.7197C19.0106 42.721 31.5959 42.7191 44.1807 42.7217L44.5537 42.7334L44.8955 42.752L45.0498 42.7588L45.1328 42.8213L45.1699 42.7549L45.373 42.6992C46.4868 42.3926 47.1924 41.7626 47.501 41.0195C47.8093 40.2771 47.7566 39.3371 47.1836 38.3379C40.7837 27.1839 34.3802 16.0294 27.9727 4.87793C27.3533 3.80007 26.4082 3.30582 25.501 3.30957Z" fill="currentColor" stroke="currentColor"/>
<path d="M23.4609 13.8794C23.6634 12.3568 25.0919 11.5166 26.4863 12.0757C26.9188 12.2494 27.1642 12.5852 27.3213 13.1147C27.6988 14.3877 27.6476 15.7058 27.5352 17.0962C27.4024 18.7303 27.2599 20.3633 27.1133 21.9966L26.6689 26.8999C26.6273 27.363 26.5262 27.8062 26.3486 28.2231L26.3477 28.2241C26.2168 28.5318 26.0875 28.6871 25.9629 28.772C25.8423 28.854 25.6682 28.9095 25.3682 28.9038C25.1018 28.8988 24.9496 28.8397 24.8428 28.7563C24.7574 28.6897 24.6687 28.5816 24.5811 28.3979L24.4932 28.188C24.1272 27.1787 24.1103 26.12 24.0264 24.9409C23.8344 22.2225 23.669 19.5027 23.4844 16.6304C23.4945 16.189 23.4562 15.7056 23.4336 15.2612C23.4096 14.7901 23.4008 14.3307 23.4609 13.8794Z" fill="currentColor" stroke="currentColor"/>
<path d="M25.4902 32.9308H25.4922C26.6656 32.9321 27.6021 33.86 27.6084 34.9787V34.9797C27.6155 36.2399 26.7327 37.1228 25.4883 37.1135C24.3545 37.1057 23.5184 36.331 23.4209 35.2228L23.4111 34.9973C23.4153 33.8436 24.3336 32.9299 25.4902 32.9308Z" fill="currentColor" stroke="currentColor"/>
</svg>
