<svg width="50" height="48" viewBox="0 0 50 48" fill="currentColor" xmlns="http://www.w3.org/2000/svg">
<path d="M50 34.8225C50 29.8122 46.2818 25.3224 40.7297 23.6073C44.6519 21.7385 47.1774 17.7478 47.1774 13.3951C47.1774 7.16416 42.1275 2.09472 35.919 2.09472C33.4665 2.09472 31.1342 2.87536 29.1731 4.35267C27.35 5.72707 25.9605 7.65738 25.2404 9.81361C24.8916 7.16534 23.6141 4.72643 21.6235 2.91913C19.5505 1.03731 16.8706 0 14.0798 0C7.87135 0 2.8202 5.06826 2.8202 11.2992C2.8202 15.653 5.34696 19.6438 9.27026 21.5126C3.71942 23.2265 0 27.7163 0 32.7254V46.8349C0 47.4772 0.520907 48 1.16202 48H26.9328C27.5727 48 28.0936 47.4772 28.0936 46.8349V46.3228H48.7708C49.4107 46.3228 49.9316 45.8 49.9316 45.1577V35.9959C49.9764 35.6079 50 35.2129 50 34.8214V34.8225ZM23.0165 11.2992C23.0165 16.2444 19.0072 20.2683 14.0798 20.2683C9.15241 20.2683 5.14307 16.2444 5.14307 11.2992C5.14307 6.35395 9.15241 2.3301 14.0798 2.3301C19.0072 2.3301 23.0165 6.35395 23.0165 11.2992ZM31.1118 23.6073C29.192 24.1975 27.4242 25.1473 25.9841 26.3608C24.3165 24.1289 21.8038 22.4127 18.8905 21.5114C21.666 20.189 23.7885 17.7892 24.7596 14.8795C25.2581 18.6514 27.667 21.9656 31.113 23.6061L31.1118 23.6073ZM17.6661 23.5813L14.1034 35.0839L9.83831 23.7717C11.1971 23.34 12.6243 23.1212 14.081 23.1212C15.2996 23.1212 16.5052 23.2761 17.6661 23.5801V23.5813ZM14.2118 39.8293H14.246C14.7421 39.8139 15.1735 39.4851 15.3208 39.0096L19.8569 24.3655C23.5492 26.0734 25.8391 29.2705 25.8391 32.7254C25.8391 33.0424 25.8191 33.3665 25.7802 33.6882C25.7743 33.7344 25.7719 33.7829 25.7719 33.829V45.6699H2.32287V32.7254C2.32287 29.4621 4.32871 26.4543 7.69339 24.6695L13.1252 39.0758C13.2949 39.5265 13.7321 39.8293 14.2118 39.8293ZM35.7741 30.9264C32.4082 30.9264 31.7305 26.3892 31.6645 25.8712C33.0257 25.4371 34.4576 25.2171 35.9202 25.2171C37.1435 25.2171 38.3538 25.3732 39.5194 25.6796C39.4911 26.2035 39.1411 30.9264 35.7741 30.9264ZM29.5373 26.7642L31.2143 30.2747L31.2179 30.2806C31.232 30.3031 32.6368 32.5457 35.2932 32.5457C38.2926 32.7266 39.8777 31.0376 40.6826 29.591C41.4404 28.2285 41.6619 26.8174 41.7079 26.4673C45.3932 28.1764 47.6795 31.3711 47.6795 34.8237C47.6795 35.1431 47.6595 35.4672 47.6206 35.7865C47.6147 35.835 47.6123 35.8823 47.6123 35.9273V43.9951H28.096V33.9035C28.1408 33.5132 28.1632 33.1169 28.1632 32.7278C28.1632 31.2422 27.8391 29.785 27.1991 28.3976C27.8897 27.7731 28.677 27.2243 29.5397 26.7665L29.5373 26.7642ZM26.9835 13.3951C26.9835 8.44985 30.9928 4.426 35.9202 4.426C40.8476 4.426 44.8557 8.44985 44.8557 13.3951C44.8557 18.3403 40.8476 22.3642 35.9202 22.3642C30.9928 22.3642 26.9835 18.3415 26.9835 13.3951Z" fill="currentColor"/>
</svg>
