<svg width="50" height="62" xmlns="http://www.w3.org/2000/svg" viewBox="0 0 48.46 51.89" fill="currentColor">
  <g>
    <path d="M48.39,12.33c-.19-3.12-.31-6.03-3.43-7.5C40.87,2.91,27.17-.31,22.82.02,19.45.28,5.41,3.56,2.85,5.22c-1.32.85-2.14,2.38-2.39,3.9-2.54,15.28,5.67,34.95,20.09,41.66,3.85,1.79,5.1,1.28,8.63-.67,13.12-7.21,20.1-23.16,19.21-37.78ZM27.95,46.89c-3.09,1.82-3.65,2.09-6.82.33C8.83,40.4,2.59,25.38,3.69,11.69c.06-.83.32-3.08.8-3.51.74-.67,8.12-2.55,9.65-2.93,2.77-.69,6.56-1.8,9.35-1.93,6.1-.27,14.28,3.21,20.24,4.73.64.4.81,1.34.92,2.06,2,13.77-4.53,29.64-16.7,36.78Z"/>
    <path d="M29.02,31.07c-2.53.21-7.82.28-10.28,0-2.57-.3-2.13-2.21-.96-3.96.9-1.36,2.77-2.35,4.36-2.6,3.03-.47,7.99.33,9.1,3.66.78,2.34.02,2.72-2.22,2.9Z"/>
    <path d="M26.1,22.51c-6.21,2.61-8.91-6.29-2.97-7.27,5.23-.86,7.56,5.34,2.97,7.27Z"/>
  </g>
</svg>
